{"glyphs":{":":{"x_min":0,"x_max":215,"ha":215,"o":"m 91 31 q 91 16 80 6 q 70 -5 55 -5 q 41 -5 30 6 q 20 16 20 31 q 20 45 30 55 q 41 66 55 66 q 70 66 80 55 q 91 45 91 31 z m 215 288 q 215 273 204 262 q 194 252 179 252 q 165 252 154 262 q 144 273 144 288 q 144 302 154 312 q 165 323 179 323 q 194 323 204 312 q 215 302 215 288 z"},"$":{"x_min":0,"x_max":412,"ha":412,"o":"m -17 -97 l 61 64 q 34 77 14 99 q -6 121 -20 151 l 5 163 q 19 135 34 116 q 50 97 71 86 l 218 392 q 212 416 209 439 q 206 462 206 483 q 206 535 219 573 q 231 610 252 634 q 273 658 301 670 q 329 682 358 685 l 421 817 l 442 808 l 383 685 q 401 683 417 677 l 485 817 l 505 808 l 438 668 q 471 650 490 623 l 468 606 q 462 617 452 627 q 441 637 427 645 l 285 348 q 292 318 297 291 q 302 265 302 246 q 302 200 290 164 q 277 128 256 104 q 235 79 206 65 q 176 52 142 50 l 68 -106 l 47 -97 l 117 50 q 97 51 82 56 l 4 -106 z m 238 303 q 235 315 232 329 q 229 342 226 356 l 92 78 q 108 74 128 74 z m 265 438 q 267 425 270 411 q 273 397 277 383 l 407 654 q 398 657 390 659 q 381 661 373 661 l 371 661 z m 253 213 q 253 225 251 238 q 249 251 246 267 l 155 76 q 179 80 197 93 q 215 105 228 124 q 240 143 247 166 q 253 188 253 213 z m 255 513 q 255 497 258 476 l 345 658 q 328 654 312 644 q 295 635 283 618 q 271 601 263 575 q 255 549 255 513 z"},"?":{"x_min":0,"x_max":555,"ha":555,"o":"m 229 123 q 223 137 220 151 q 217 165 217 177 q 217 212 232 239 q 248 266 272 288 q 297 310 328 328 q 360 347 393 366 q 425 384 457 404 q 488 424 513 448 q 538 472 553 501 q 568 531 568 569 q 568 601 556 623 q 544 644 525 657 q 506 670 482 676 q 458 681 435 681 q 392 681 354 668 q 316 655 288 633 q 260 612 243 584 q 227 556 227 526 q 227 509 233 497 q 238 484 248 476 q 257 467 270 463 q 282 459 295 459 q 318 459 336 463 q 355 467 368 473 l 372 453 q 356 446 333 440 q 310 434 282 434 q 260 434 240 439 q 220 444 206 455 q 191 465 182 482 q 173 499 173 522 q 173 559 196 592 q 218 625 255 650 q 292 675 340 690 q 388 705 438 705 q 476 705 509 695 q 542 686 567 667 q 592 648 606 620 q 620 593 620 557 q 620 516 604 484 q 587 452 561 426 q 534 400 500 379 q 466 358 431 339 q 396 320 362 302 q 328 284 301 264 q 274 244 258 221 q 242 198 242 170 q 242 162 243 153 q 245 144 249 134 z m 237 31 q 237 16 227 6 q 216 -5 201 -5 q 187 -5 177 6 q 166 16 166 31 q 166 45 177 55 q 187 66 201 66 q 216 66 227 55 q 237 45 237 31 z"},"<":{"x_min":0,"x_max":391,"ha":391,"o":"m 110 334 l 355 524 l 372 504 l 146 330 l 252 159 l 228 144 z"},"'":{"x_min":0,"x_max":244,"ha":244,"o":"m 202 521 l 179 521 l 250 705 l 311 705 z"},"=":{"x_min":0,"x_max":391,"ha":391,"o":"m 50 256 l 63 283 l 353 283 l 339 256 z m 83 383 l 97 410 l 386 410 l 373 383 z"},"a":{"x_min":0,"x_max":442,"ha":442,"o":"m 388 325 q 382 312 370 292 q 359 271 346 246 q 333 222 319 195 q 306 168 295 142 q 284 117 277 94 q 270 71 270 56 q 270 40 276 35 q 282 31 292 31 q 306 31 321 39 q 335 47 350 61 q 364 74 378 90 q 392 107 404 124 q 416 141 425 156 q 435 171 442 182 l 459 168 q 451 153 440 135 q 429 117 415 98 q 402 80 386 63 q 371 46 353 33 q 336 20 317 12 q 298 4 278 4 q 249 4 235 21 q 221 39 221 67 q 221 69 221 75 q 222 82 223 86 q 198 55 176 35 q 154 15 133 3 q 112 -8 93 -13 q 74 -18 56 -18 q 38 -18 21 -11 q 5 -5 -8 6 q -20 18 -27 35 q -34 52 -34 75 q -34 103 -22 138 q -9 174 22 216 q 49 251 78 276 q 107 300 135 315 q 164 330 189 336 q 214 343 234 343 q 279 343 302 328 q 325 313 330 282 q 340 294 351 307 q 361 319 373 332 z m 238 139 q 245 149 254 165 q 263 181 273 198 q 284 215 293 230 q 303 246 311 257 q 311 261 309 271 q 308 281 303 291 q 297 301 286 308 q 274 315 253 315 q 238 315 219 311 q 200 306 179 295 q 158 284 135 266 q 113 248 90 221 q 57 181 38 140 q 20 99 20 66 q 20 39 33 23 q 45 8 69 8 q 96 8 119 20 q 143 32 163 51 q 184 70 202 94 q 221 117 238 139 z"},"L":{"x_min":0,"x_max":834,"ha":834,"o":"m 553 -63 q 521 -63 489 -57 q 457 -52 423 -43 q 390 -34 357 -23 q 324 -12 292 -2 q 253 -25 211 -39 q 169 -52 123 -52 q 83 -52 62 -38 q 41 -24 41 0 q 41 30 75 47 q 109 63 179 63 q 209 63 240 59 q 271 55 302 48 q 333 75 361 108 q 389 142 415 181 q 395 178 375 177 q 354 176 333 176 q 256 176 196 194 q 136 212 95 244 q 53 276 31 320 q 10 363 10 413 q 10 471 32 517 q 55 562 94 593 q 133 624 187 640 q 240 657 301 657 q 339 657 371 651 q 403 645 426 638 q 449 631 462 625 q 476 619 477 618 l 464 596 q 464 596 452 602 q 440 607 420 614 q 399 620 371 625 q 343 631 310 631 q 252 631 207 614 q 161 597 130 568 q 98 539 81 499 q 64 460 64 416 q 64 366 87 326 q 110 287 149 260 q 188 233 239 219 q 290 205 346 205 q 369 205 391 206 q 413 208 435 211 q 470 265 502 323 q 535 381 567 437 q 599 493 632 543 q 665 593 700 630 q 735 668 774 690 q 813 712 858 712 q 876 712 891 707 q 906 701 917 690 q 929 678 935 661 q 941 643 941 620 q 941 582 927 539 q 912 497 884 455 q 856 413 816 372 q 776 331 726 296 q 675 262 614 235 q 554 208 485 192 q 453 148 419 109 q 385 69 347 38 q 384 28 419 17 q 455 6 487 -3 q 519 -12 546 -18 q 574 -24 595 -24 q 626 -24 655 -14 q 684 -3 713 24 l 733 9 q 732 8 728 3 q 723 -3 713 -11 q 703 -19 688 -28 q 674 -37 654 -45 q 634 -53 609 -58 q 584 -63 553 -63 z m 860 686 q 833 686 806 666 q 779 646 752 613 q 725 580 697 534 q 668 489 639 438 q 609 387 577 333 q 544 279 509 227 q 568 243 621 269 q 674 294 719 327 q 764 359 801 396 q 837 433 863 471 q 888 510 902 548 q 916 585 916 620 q 916 638 911 651 q 907 663 899 671 q 892 679 882 682 q 872 686 860 686 z m 120 -27 q 156 -27 188 -17 q 220 -7 250 11 q 218 20 188 26 q 158 32 130 32 q 97 32 82 22 q 66 12 66 0 q 66 -4 69 -9 q 71 -14 77 -18 q 83 -21 93 -24 q 103 -27 120 -27 z"},"3":{"x_min":0,"x_max":616,"ha":616,"o":"m 691 684 q 667 659 638 624 q 608 590 574 552 q 541 515 504 478 q 468 440 431 409 q 459 398 484 381 q 508 363 527 339 q 545 315 555 285 q 566 254 566 218 q 566 170 552 128 q 538 86 513 50 q 489 14 455 -14 q 421 -43 380 -63 q 340 -83 294 -94 q 249 -104 202 -104 q 155 -104 114 -93 q 73 -81 42 -58 q 11 -35 -7 -1 q -24 33 -24 76 q -24 114 -7 149 q 11 184 40 212 l 58 193 q 33 169 19 139 q 4 109 4 77 q 4 42 17 15 q 30 -11 53 -29 q 76 -47 108 -57 q 140 -66 179 -66 q 223 -66 264 -55 q 306 -45 343 -26 q 380 -6 412 21 q 443 48 465 81 q 488 115 500 154 q 513 192 513 235 q 513 263 506 288 q 498 312 484 332 q 471 352 452 367 q 433 382 410 391 q 372 362 336 344 q 301 326 269 326 q 256 326 248 330 q 240 333 234 339 q 229 345 227 351 q 224 358 224 364 q 224 375 230 386 q 237 398 250 407 q 264 416 285 422 q 306 427 336 427 q 368 427 401 419 q 431 444 462 474 q 493 504 523 537 q 554 569 583 601 q 612 633 638 662 q 595 649 549 644 q 504 639 459 639 q 410 639 365 643 q 320 647 285 653 q 250 658 229 663 q 207 667 204 668 l 211 696 q 211 696 232 691 q 253 686 287 680 q 321 674 366 670 q 411 665 460 665 q 515 665 571 673 q 626 682 676 704 z m 272 351 q 294 351 321 364 q 348 377 378 400 q 358 405 337 405 q 317 405 302 402 q 286 398 274 393 q 263 388 257 381 q 250 374 250 367 q 250 362 256 356 q 261 351 272 351 z"},";":{"x_min":0,"x_max":215,"ha":215,"o":"m 215 288 q 215 273 204 262 q 194 252 179 252 q 165 252 154 262 q 144 273 144 288 q 144 302 154 312 q 165 323 179 323 q 194 323 204 312 q 215 302 215 288 z m -12 -53 q 8 -43 25 -30 q 42 -16 49 -3 q 33 0 26 10 q 20 20 20 31 q 20 46 30 56 q 41 66 55 66 q 70 66 80 56 q 90 45 90 31 q 90 15 82 0 q 74 -15 61 -28 q 48 -41 31 -52 q 15 -62 -2 -69 z"},"J":{"x_min":0,"x_max":622,"ha":622,"o":"m 563 78 q 542 83 522 89 q 502 94 481 98 q 456 47 428 -1 q 400 -50 369 -98 q 345 -134 316 -168 q 286 -203 253 -234 q 220 -264 185 -290 q 149 -315 114 -334 q 78 -353 42 -363 q 7 -374 -26 -374 q -56 -374 -86 -363 q -117 -353 -141 -332 q -165 -311 -180 -279 q -195 -248 -195 -205 q -195 -183 -190 -159 q -185 -134 -173 -108 q -162 -83 -143 -55 q -125 -28 -98 0 q -62 38 -18 65 q 26 92 76 110 q 126 128 180 136 q 234 145 290 145 q 327 145 363 142 q 399 138 436 132 q 462 186 483 239 q 504 292 520 344 q 543 423 553 481 q 563 539 563 582 q 563 618 558 644 q 552 670 542 688 q 533 707 521 718 q 509 729 496 736 q 484 742 472 744 q 460 746 451 746 q 412 746 381 728 q 350 709 329 675 q 308 642 296 594 q 285 546 285 488 q 285 443 293 404 q 301 366 312 334 q 324 302 338 278 q 352 253 364 237 q 376 220 384 211 q 392 203 392 203 l 377 187 q 346 214 318 247 q 291 279 271 317 q 251 354 239 397 q 228 439 228 485 q 228 538 243 589 q 258 641 287 681 q 315 722 357 747 q 399 772 453 772 q 465 772 481 770 q 498 767 515 760 q 532 752 549 738 q 565 725 578 702 q 591 679 599 646 q 607 613 607 567 q 607 546 605 523 q 604 499 600 472 q 586 381 559 293 q 531 206 492 121 q 512 116 532 111 q 551 106 570 101 z m -27 -348 q 10 -350 49 -334 q 89 -318 129 -287 q 169 -257 209 -214 q 249 -171 286 -120 q 324 -68 359 -11 q 394 47 424 107 q 399 111 375 113 q 350 115 324 115 q 248 115 183 98 q 119 81 66 52 q 13 24 -28 -13 q -68 -49 -96 -88 q -123 -127 -137 -165 q -151 -204 -151 -235 q -151 -260 -143 -281 q -134 -302 -118 -317 q -103 -332 -79 -340 q -56 -348 -27 -348 z"},"V":{"x_min":0,"x_max":1082,"ha":1082,"o":"m 520 377 q 498 338 469 299 q 439 260 404 228 q 368 197 324 177 q 281 157 229 157 q 188 157 151 170 q 114 183 87 208 q 60 234 45 271 q 29 308 29 356 q 29 415 48 465 q 66 514 97 554 q 128 594 170 624 q 211 654 258 674 q 305 694 355 704 q 404 714 451 714 q 502 713 551 699 q 599 685 637 656 q 675 627 698 583 q 721 538 721 478 q 721 436 706 384 q 691 332 655 269 q 613 195 583 144 q 552 92 531 57 q 511 22 501 2 q 492 -19 492 -31 q 492 -43 502 -50 q 513 -57 532 -57 q 558 -57 593 -43 q 628 -29 670 -2 q 709 22 747 54 q 784 86 820 122 q 856 158 889 196 q 923 235 953 273 q 982 312 1008 348 q 1033 385 1053 417 q 1043 447 1039 475 q 1035 502 1035 527 q 1035 557 1040 580 q 1045 603 1054 619 q 1063 635 1076 643 q 1088 651 1103 651 q 1115 651 1124 646 q 1133 640 1139 631 q 1145 623 1147 611 q 1150 600 1150 589 q 1150 572 1145 547 q 1139 523 1123 490 q 1110 461 1086 421 q 1062 381 1030 335 q 997 288 958 238 q 918 188 874 141 q 830 93 781 51 q 733 8 684 -23 q 632 -57 595 -70 q 558 -83 532 -83 q 509 -83 494 -76 q 479 -69 469 -57 q 460 -46 456 -32 q 452 -18 452 -3 q 452 15 458 34 q 463 54 474 72 q 487 94 507 126 q 527 158 550 195 q 573 233 596 275 q 619 316 637 358 q 655 400 667 440 q 678 480 678 514 q 678 547 663 579 q 648 610 619 634 q 590 659 548 674 q 505 688 450 688 q 400 688 354 677 q 308 665 267 643 q 227 622 193 592 q 160 562 136 526 q 112 490 99 449 q 85 408 85 365 q 85 324 98 293 q 111 261 133 240 q 155 219 184 208 q 213 198 245 198 q 279 198 313 211 q 348 224 381 249 q 414 274 444 309 q 475 345 500 389 z m 1071 447 q 1087 475 1098 497 q 1108 519 1114 536 q 1120 553 1122 566 q 1125 579 1125 588 q 1125 594 1124 601 q 1123 607 1120 613 q 1117 619 1113 622 q 1108 625 1100 625 q 1091 625 1084 617 q 1077 609 1071 596 q 1066 583 1063 565 q 1060 547 1060 526 q 1060 509 1062 489 q 1065 469 1071 447 z"},"\"":{"x_min":0,"x_max":327,"ha":327,"o":"m 202 521 l 179 521 l 250 705 l 311 705 z m 285 521 l 261 521 l 333 705 l 394 705 z"},"7":{"x_min":0,"x_max":522,"ha":522,"o":"m 684 679 q 580 590 494 506 q 409 422 340 343 q 271 263 216 187 q 161 110 117 38 q 73 -34 37 -103 q 2 -172 -27 -239 l -98 -221 q -61 -132 -11 -47 q 40 38 97 116 q 155 195 216 266 q 277 336 335 397 q 472 539 622 660 q 562 645 504 640 q 447 635 395 637 q 344 639 300 645 q 256 651 223 658 q 191 665 171 670 q 152 676 149 677 l 158 701 q 158 701 179 695 q 200 688 236 681 q 272 674 321 668 q 370 662 427 662 q 483 663 546 671 q 608 679 671 701 z"},"S":{"x_min":0,"x_max":855,"ha":855,"o":"m 1031 609 q 1031 578 1019 544 q 1007 511 983 478 q 960 445 926 415 q 891 385 846 360 q 802 335 748 318 q 693 300 630 293 q 604 246 577 199 q 549 152 518 110 q 486 68 451 32 q 417 -4 377 -30 q 337 -57 291 -72 q 246 -86 193 -86 q 150 -86 110 -74 q 70 -62 39 -38 q 8 -14 -11 20 q -29 54 -29 98 q -29 146 -12 181 q 5 216 34 239 q 62 263 99 274 q 135 286 172 286 q 201 286 229 280 q 257 274 283 264 q 309 254 331 240 q 353 226 370 208 l 355 193 q 344 204 328 214 q 312 225 292 233 q 271 241 247 245 q 222 250 194 250 q 161 250 130 239 q 100 228 76 207 q 52 187 37 156 q 22 126 22 88 q 22 57 35 30 q 47 2 70 -17 q 93 -37 124 -48 q 155 -60 192 -60 q 235 -60 273 -46 q 311 -33 344 -9 q 377 15 406 47 q 436 80 463 119 q 489 158 514 201 q 538 244 562 289 l 549 289 q 467 289 401 305 q 335 322 289 352 q 243 381 219 420 q 194 459 194 505 q 194 550 211 585 q 229 620 259 643 q 290 667 330 678 q 370 690 415 690 q 453 690 485 684 q 518 678 543 669 q 569 659 589 648 q 608 637 622 626 q 636 616 644 608 q 651 601 654 598 l 637 583 q 637 584 623 596 q 609 608 584 622 q 560 637 524 649 q 489 661 446 661 q 403 661 366 648 q 330 636 304 615 q 277 593 262 563 q 248 533 248 498 q 248 457 271 423 q 293 389 334 365 q 375 340 430 327 q 486 313 551 313 l 575 313 q 600 362 625 409 q 650 457 677 500 q 703 543 731 581 q 760 618 792 645 q 823 672 859 687 q 896 703 937 703 q 954 703 971 698 q 988 693 1001 682 q 1015 671 1023 654 q 1031 636 1031 609 z m 947 676 q 917 676 889 663 q 861 649 835 624 q 810 600 786 566 q 762 533 739 493 q 716 453 692 409 q 669 365 645 319 q 708 328 760 346 q 812 365 852 389 q 892 414 921 443 q 950 472 969 500 q 988 529 997 556 q 1006 583 1006 604 q 1006 619 1003 632 q 1000 646 993 655 q 986 665 975 671 q 964 676 947 676 z"},"}":{"x_min":0,"x_max":343,"ha":343,"o":"m 181 211 q 167 216 158 232 q 149 249 149 267 q 149 287 159 312 q 168 338 182 367 q 196 396 212 427 q 229 458 242 488 q 256 518 266 546 q 275 574 275 598 q 275 612 270 627 q 265 641 253 653 q 241 664 221 671 q 201 678 171 678 l 184 705 q 225 705 252 695 q 280 685 297 668 q 313 652 321 633 q 328 614 328 596 q 328 572 318 542 q 309 513 294 482 q 280 450 263 418 q 247 386 232 357 q 218 328 208 302 q 199 276 199 258 q 199 217 235 217 l 262 217 l 249 190 l 210 190 q 182 190 159 165 q 137 140 118 98 q 100 57 84 3 q 69 -50 55 -105 q 43 -152 22 -177 q 1 -203 -27 -214 q -55 -226 -88 -228 q -122 -229 -158 -229 l -146 -203 q -122 -203 -99 -199 q -76 -196 -56 -185 q -36 -174 -21 -153 q -5 -132 4 -96 q 19 -39 32 13 q 46 64 65 104 q 84 145 112 173 q 139 201 181 211 z"},"Z":{"x_min":0,"x_max":741,"ha":741,"o":"m 372 22 q 381 12 393 -7 q 405 -25 411 -54 q 462 -27 508 -2 q 554 22 595 50 q 637 77 673 109 q 709 141 741 182 l 759 168 q 729 129 696 97 q 662 66 620 37 q 579 8 528 -20 q 478 -48 415 -82 q 415 -85 415 -89 q 416 -93 416 -97 q 416 -132 403 -172 q 390 -211 368 -250 q 347 -289 318 -325 q 290 -360 259 -387 q 228 -415 195 -431 q 163 -447 134 -447 q 119 -447 106 -441 q 94 -436 84 -427 q 75 -417 70 -405 q 65 -392 65 -377 q 65 -353 77 -326 q 89 -300 110 -273 q 132 -246 161 -219 q 190 -192 224 -167 q 258 -142 296 -118 q 334 -95 373 -75 q 373 -48 366 -26 q 359 -3 349 10 q 301 -13 252 -13 q 220 -13 200 -1 q 180 10 180 30 q 180 52 200 64 q 220 77 252 77 q 275 77 300 69 q 325 61 345 46 q 384 68 416 106 q 448 144 479 193 q 511 241 546 297 q 580 353 623 411 q 667 469 722 526 q 778 583 852 633 q 813 625 777 621 q 740 617 705 617 q 650 617 598 624 q 546 631 497 639 q 448 647 402 654 q 356 661 315 661 q 260 661 218 643 q 175 625 146 596 q 117 567 101 532 q 86 496 86 461 q 86 423 99 393 q 112 363 135 342 q 157 321 189 310 q 220 299 257 299 q 295 299 326 307 q 356 314 379 323 q 401 333 414 341 q 427 349 429 350 l 443 329 q 425 317 403 306 q 381 295 356 286 q 331 278 302 273 q 273 268 242 268 q 191 268 151 283 q 111 297 84 323 q 57 348 43 381 q 29 415 29 453 q 29 506 51 549 q 72 593 110 624 q 149 654 203 671 q 256 688 321 688 q 361 688 406 681 q 451 674 500 665 q 549 657 601 650 q 653 643 706 643 q 757 643 809 651 q 861 659 918 679 l 929 656 q 867 612 820 567 q 773 522 735 475 q 697 428 664 377 q 630 326 595 269 q 537 175 482 114 q 426 53 372 22 z m 370 -105 q 312 -136 260 -172 q 209 -208 172 -244 q 134 -280 112 -314 q 90 -349 90 -377 q 90 -383 92 -389 q 94 -396 97 -401 q 101 -406 106 -409 q 112 -413 119 -413 q 134 -413 156 -399 q 179 -386 205 -363 q 230 -340 257 -310 q 284 -279 307 -245 q 330 -211 347 -175 q 364 -139 370 -105 z m 324 32 q 310 40 292 46 q 274 53 251 53 q 233 53 219 47 q 206 41 206 31 q 206 22 216 17 q 226 11 248 11 q 270 11 288 17 q 307 22 324 32 z"},"x":{"x_min":0,"x_max":473,"ha":473,"o":"m 208 156 q 207 191 207 221 q 208 252 205 275 q 203 297 196 311 q 189 324 174 324 q 161 324 146 316 q 132 308 117 295 q 103 282 88 265 q 73 249 60 231 q 47 214 36 198 q 25 181 18 168 l 0 182 q 7 193 18 210 q 29 227 42 245 q 56 264 71 282 q 87 301 104 316 q 121 331 139 340 q 157 349 176 349 q 193 349 208 344 q 222 339 233 325 q 244 312 251 286 q 258 261 260 221 q 288 255 309 280 q 330 305 348 321 q 366 337 381 345 q 396 353 411 353 q 426 353 435 348 q 443 343 448 337 q 453 330 455 323 q 456 316 456 312 q 456 299 449 290 q 442 280 430 280 q 417 280 410 288 q 403 297 403 308 q 403 311 404 316 q 404 322 407 328 q 396 328 382 318 q 368 308 350 289 q 333 270 311 242 q 289 215 262 182 q 263 134 264 100 q 265 65 268 42 q 271 20 278 8 q 285 -3 296 -3 q 311 -3 327 7 q 344 17 360 32 q 377 48 393 68 q 410 88 424 109 q 439 129 451 149 q 464 168 473 182 l 490 168 q 487 163 477 146 q 466 128 451 106 q 436 84 417 60 q 397 35 375 15 q 354 -5 331 -19 q 308 -32 286 -32 q 267 -32 253 -25 q 239 -19 230 -2 q 221 15 216 43 q 211 71 209 115 q 182 81 158 54 q 135 27 113 8 q 92 -11 72 -21 q 52 -31 33 -31 q 7 -31 -8 -16 q -22 -2 -22 20 q -22 30 -16 40 q -9 49 3 49 q 14 49 22 40 q 31 31 31 18 q 31 13 29 6 q 28 -1 24 -6 q 26 -7 28 -8 q 31 -8 33 -8 q 50 -8 70 5 q 89 18 111 40 q 133 62 157 91 q 182 120 208 154 z"},")":{"x_min":0,"x_max":343,"ha":343,"o":"m 166 705 q 180 679 198 641 q 216 604 232 558 q 248 513 259 461 q 270 409 270 354 q 270 257 238 168 q 206 80 148 5 q 91 -70 10 -130 q -70 -190 -168 -229 l -176 -209 q -134 -192 -89 -162 q -43 -133 0 -92 q 43 -52 83 -1 q 122 49 151 109 q 181 168 198 236 q 215 304 215 379 q 215 435 208 481 q 201 527 190 566 q 180 604 167 635 q 155 667 144 694 z"},"&":{"x_min":0,"x_max":838,"ha":838,"o":"m 581 146 q 604 151 628 151 q 659 151 688 142 q 716 133 739 117 q 762 101 775 77 q 789 53 789 22 q 789 -4 777 -26 q 765 -48 744 -64 q 723 -80 694 -89 q 666 -97 632 -97 q 593 -97 557 -89 q 521 -80 489 -65 q 456 -50 427 -29 q 397 -7 372 19 q 336 2 297 -8 q 257 -17 215 -17 q 163 -17 125 -6 q 88 5 65 24 q 42 42 31 67 q 20 92 20 121 q 20 157 36 186 q 53 214 82 237 q 110 259 147 276 q 184 294 225 309 q 222 332 222 354 q 222 404 240 445 q 259 486 289 515 q 319 543 356 559 q 394 575 431 575 q 455 575 475 568 q 494 562 508 550 q 521 538 529 521 q 537 505 537 487 q 537 462 526 442 q 516 421 497 405 q 479 388 454 375 q 430 361 401 349 q 373 337 342 326 q 311 315 280 304 q 286 277 297 246 q 307 215 322 184 q 336 152 355 121 q 374 90 396 62 q 424 78 447 99 q 470 120 487 144 q 504 167 513 193 q 523 218 523 244 q 523 264 520 275 q 516 287 516 291 l 541 297 q 542 292 546 278 q 549 264 549 244 q 549 217 539 189 q 529 161 511 135 q 494 108 469 84 q 443 61 413 41 q 434 16 458 -6 q 482 -27 509 -43 q 535 -59 563 -67 q 591 -76 621 -76 q 646 -76 668 -70 q 690 -63 708 -51 q 725 -38 735 -17 q 745 3 745 31 q 745 56 735 74 q 725 93 708 106 q 690 119 669 126 q 647 132 624 132 q 613 132 604 131 q 594 130 586 129 z m 229 284 q 198 271 171 256 q 144 241 124 222 q 104 203 92 180 q 80 156 80 127 q 80 102 88 81 q 96 60 114 44 q 131 28 158 19 q 185 10 222 10 q 255 10 289 18 q 322 25 353 39 q 328 65 308 96 q 288 126 272 157 q 257 189 246 221 q 234 253 229 284 z m 509 487 q 509 498 505 509 q 500 521 490 529 q 481 538 466 543 q 451 549 431 549 q 404 549 376 538 q 348 528 325 505 q 302 482 288 447 q 273 411 273 360 q 273 353 274 344 q 274 336 276 327 q 320 343 362 358 q 404 374 437 392 q 470 410 490 433 q 509 456 509 487 z"},"_":{"x_min":0,"x_max":301,"ha":301,"o":"m -98 -146 l -80 -110 l 208 -110 l 191 -146 z"},"v":{"x_min":0,"x_max":350,"ha":350,"o":"m 258 187 q 250 204 246 223 q 242 241 242 261 q 242 287 247 305 q 251 323 258 334 q 265 345 273 350 q 281 354 289 354 q 295 354 301 352 q 306 349 311 343 q 315 336 318 326 q 320 316 320 301 q 320 266 306 229 q 292 191 269 157 q 246 122 216 91 q 186 61 153 37 q 145 31 133 24 q 122 17 109 10 q 96 4 82 0 q 68 -4 55 -4 q 22 -4 1 21 q -20 45 -20 90 q -20 110 -14 134 q -8 157 2 182 q 13 207 26 231 q 40 256 55 279 q 71 302 87 322 q 104 342 120 357 l 142 343 q 113 300 93 260 q 72 219 59 184 q 45 148 39 118 q 32 89 32 67 q 32 42 39 32 q 45 21 58 21 q 69 21 90 30 q 111 39 138 58 q 173 82 204 115 q 236 149 258 187 z m 274 211 q 284 233 289 257 q 295 281 295 302 q 295 316 292 323 q 290 329 289 330 q 288 330 285 327 q 281 324 277 317 q 273 309 270 296 q 267 282 267 261 q 267 249 268 235 q 270 222 274 211 z"},"O":{"x_min":0,"x_max":768,"ha":768,"o":"m 681 615 q 681 616 674 625 q 668 635 653 646 q 638 658 612 667 q 587 676 549 676 q 488 676 429 652 q 371 628 317 587 q 264 546 219 491 q 174 437 141 374 q 107 312 89 246 q 70 180 70 116 q 70 72 84 34 q 98 -3 124 -31 q 150 -58 188 -73 q 226 -88 273 -88 q 315 -88 357 -76 q 399 -64 438 -42 q 478 -20 514 10 q 551 41 583 77 q 614 113 640 153 q 666 193 685 235 q 703 277 713 320 q 723 362 723 402 q 723 444 712 477 q 701 509 681 531 q 661 552 633 563 q 605 574 573 574 q 541 574 509 563 q 478 551 448 531 q 419 510 394 481 q 369 453 351 420 q 332 386 322 348 q 311 311 311 271 q 311 242 318 217 q 326 191 338 172 q 350 152 366 139 q 382 126 399 122 l 395 101 q 370 104 345 117 q 320 130 300 152 q 279 174 266 207 q 253 239 253 282 q 253 322 265 361 q 277 400 298 436 q 319 471 349 501 q 378 531 413 553 q 449 575 489 587 q 529 600 572 600 q 612 600 645 586 q 678 572 701 546 q 724 521 736 484 q 749 447 749 402 q 749 359 738 314 q 728 269 708 224 q 689 180 662 138 q 634 96 601 58 q 568 21 530 -11 q 491 -42 449 -65 q 407 -88 363 -101 q 318 -114 273 -114 q 221 -114 175 -96 q 128 -79 94 -45 q 60 -12 40 37 q 20 86 20 150 q 20 221 38 289 q 56 357 90 419 q 123 480 170 532 q 217 583 274 621 q 331 659 397 680 q 463 701 534 701 q 567 701 593 696 q 618 690 637 682 q 656 674 668 665 q 681 655 689 647 q 697 638 700 632 q 704 626 704 625 z"},"(":{"x_min":0,"x_max":343,"ha":343,"o":"m 147 -231 q 133 -205 115 -167 q 98 -130 82 -84 q 66 -39 55 13 q 44 64 44 120 q 44 217 76 305 q 107 394 165 469 q 223 544 303 604 q 384 664 481 704 l 489 683 q 447 666 402 636 q 357 607 313 566 q 270 526 231 475 q 192 425 162 365 q 133 306 115 238 q 98 170 98 95 q 98 39 105 -7 q 112 -53 123 -92 q 134 -130 146 -161 q 159 -193 169 -220 z"},"C":{"x_min":0,"x_max":643,"ha":643,"o":"m 312 336 q 313 335 320 330 q 327 324 339 317 q 352 311 370 305 q 388 300 411 300 q 449 300 483 314 q 518 329 547 353 q 576 377 599 408 q 622 438 638 471 q 654 503 663 534 q 672 565 672 590 q 672 620 663 642 q 654 664 639 678 q 625 692 604 699 q 584 706 561 706 q 514 706 469 690 q 423 673 380 645 q 337 617 297 578 q 258 540 224 496 q 189 452 162 405 q 134 357 114 310 q 94 263 83 219 q 73 175 73 138 q 73 95 85 57 q 98 19 123 -10 q 147 -38 185 -54 q 222 -71 272 -71 q 316 -71 364 -57 q 412 -43 460 -13 q 507 17 554 65 q 600 113 643 182 l 660 168 q 614 94 564 43 q 515 -8 465 -39 q 415 -70 367 -83 q 318 -97 275 -97 q 212 -97 165 -74 q 117 -52 84 -16 q 52 20 36 66 q 20 112 20 160 q 20 201 31 248 q 42 294 63 342 q 84 390 114 438 q 144 485 180 529 q 216 573 259 610 q 301 648 348 676 q 395 703 444 719 q 494 735 545 735 q 577 735 607 726 q 636 717 659 697 q 681 678 694 647 q 708 617 708 574 q 708 545 699 511 q 690 478 673 444 q 656 410 632 378 q 608 346 577 322 q 547 298 510 283 q 473 269 432 269 q 387 269 354 283 q 321 298 298 320 l 312 336 z"},"W":{"x_min":0,"x_max":1357,"ha":1357,"o":"m 1139 593 q 1115 512 1085 439 q 1056 366 1030 310 q 1000 245 969 189 q 944 145 927 112 q 910 80 900 56 q 890 33 885 18 q 881 2 881 -7 q 881 -18 885 -23 q 890 -29 896 -32 q 902 -35 908 -35 q 914 -36 918 -36 q 935 -36 959 -27 q 982 -17 1010 0 q 1038 18 1068 42 q 1098 67 1128 98 q 1158 128 1186 164 q 1214 200 1237 240 q 1275 306 1297 361 q 1283 389 1276 419 q 1270 448 1270 475 q 1270 513 1281 536 q 1293 559 1315 559 q 1327 559 1335 553 q 1343 547 1348 538 q 1353 528 1355 517 q 1357 506 1357 496 q 1357 473 1350 443 q 1344 413 1331 379 q 1319 344 1301 306 q 1283 268 1259 228 q 1236 188 1207 151 q 1179 114 1148 82 q 1117 49 1085 23 q 1053 -4 1023 -23 q 993 -42 966 -52 q 938 -62 918 -62 q 879 -62 857 -45 q 835 -27 835 11 q 835 32 841 53 q 847 74 858 99 q 869 123 885 152 q 901 181 922 218 q 873 153 817 92 q 760 31 696 -17 q 667 -38 644 -52 q 620 -67 600 -76 q 580 -84 564 -88 q 548 -92 535 -92 q 516 -92 502 -86 q 488 -81 479 -72 q 470 -63 466 -51 q 461 -38 461 -23 q 461 1 469 23 q 476 45 490 68 q 506 93 529 124 q 551 155 575 188 q 599 222 623 257 q 646 292 665 327 q 684 362 696 395 q 707 427 707 456 q 707 501 689 539 q 671 577 638 604 q 605 630 558 645 q 511 660 452 660 q 372 660 304 636 q 237 613 188 572 q 140 530 113 474 q 85 418 85 354 q 85 314 98 282 q 110 250 133 226 q 156 203 188 190 q 221 177 261 177 q 307 177 347 193 q 386 209 419 238 q 451 266 477 304 q 502 343 520 387 l 542 379 q 494 261 416 201 q 338 141 230 141 q 185 141 148 156 q 111 171 84 199 q 58 227 44 265 q 29 303 29 349 q 29 411 50 460 q 70 510 104 547 q 138 584 181 611 q 225 637 270 654 q 315 670 359 678 q 402 686 437 686 q 502 686 558 670 q 614 654 655 622 q 695 591 718 544 q 741 498 741 437 q 741 393 724 339 q 708 285 666 223 q 628 166 597 124 q 565 82 543 51 q 521 21 509 0 q 497 -21 497 -34 q 497 -48 507 -57 q 517 -66 535 -66 q 561 -66 598 -48 q 635 -31 681 3 q 726 37 767 78 q 809 118 845 162 q 882 206 915 251 q 948 296 976 340 q 1003 384 1026 425 q 1049 465 1067 500 q 1084 534 1097 561 q 1109 587 1115 603 z m 1311 395 q 1322 426 1327 452 q 1332 477 1332 495 q 1332 499 1331 505 q 1331 512 1329 518 q 1328 524 1324 529 q 1321 533 1315 533 q 1307 533 1301 517 q 1295 500 1295 476 q 1295 458 1299 437 q 1302 417 1311 395 z"},"A":{"x_min":0,"x_max":1138,"ha":1138,"o":"m 1136 694 q 1150 694 1164 689 q 1177 685 1188 676 q 1198 667 1205 655 q 1211 643 1211 627 q 1211 597 1191 558 q 1172 520 1141 468 q 1107 413 1077 358 q 1047 303 1022 252 q 996 201 975 156 q 954 110 938 75 q 958 72 977 71 q 997 69 1012 70 l 1013 44 q 1010 44 988 45 q 965 45 927 50 q 912 15 904 -4 q 896 -24 896 -25 l 838 -7 l 867 60 q 834 67 798 77 q 762 87 725 99 q 688 112 650 127 q 613 143 579 162 q 547 125 510 90 q 473 54 431 26 q 388 -2 341 -19 q 293 -37 240 -37 q 193 -37 147 -23 q 100 -9 63 18 q 26 44 3 83 q -20 121 -20 170 q -20 208 -5 238 q 9 267 34 287 q 60 306 94 316 q 127 326 167 326 q 196 326 228 320 q 260 314 291 301 q 321 287 348 265 q 375 242 394 209 l 372 195 q 372 196 366 203 q 361 209 351 219 q 341 229 326 239 q 310 250 288 259 q 267 268 238 274 q 209 280 173 280 q 137 280 109 268 q 82 255 64 236 q 45 217 36 193 q 27 169 27 146 q 27 120 37 98 q 46 77 62 59 q 78 42 99 29 q 120 16 144 7 q 167 -2 192 -6 q 217 -11 240 -11 q 289 -11 333 5 q 377 21 417 47 q 457 73 491 106 q 526 140 556 174 q 523 194 495 218 q 467 241 446 267 q 426 294 414 324 q 403 355 403 389 q 403 417 413 442 q 424 467 442 486 q 460 505 486 516 q 511 527 540 527 q 572 527 601 517 q 629 507 655 490 q 681 472 704 448 q 727 424 747 396 q 801 458 856 511 q 910 565 960 606 q 1011 646 1055 670 q 1100 694 1136 694 z m 762 374 q 785 339 804 301 q 823 264 838 228 q 854 191 865 159 q 877 126 886 102 q 943 226 1008 346 q 1073 465 1154 582 q 1167 602 1173 615 q 1179 627 1179 637 q 1179 652 1166 660 q 1152 668 1135 668 q 1081 668 988 594 q 894 521 762 374 z m 447 366 q 447 340 457 317 q 467 293 484 272 q 501 251 524 232 q 548 213 575 197 q 612 241 650 286 q 688 331 727 375 q 710 397 692 417 q 673 436 653 450 q 633 464 612 472 q 590 480 567 480 q 542 480 520 471 q 498 462 481 447 q 465 432 456 411 q 447 390 447 366 z m 865 87 q 858 109 846 141 q 835 172 820 208 q 804 244 785 281 q 766 319 743 353 q 709 315 673 273 q 637 231 598 184 q 632 165 669 149 q 707 134 742 122 q 777 110 809 101 q 841 92 865 87 z"},"f":{"x_min":0,"x_max":261,"ha":261,"o":"m 5 35 q 21 22 47 22 q 75 22 99 31 q 124 40 146 54 q 167 69 185 86 q 203 104 218 122 q 232 140 243 156 q 254 171 261 182 l 288 182 q 281 170 269 152 q 257 134 241 113 q 225 93 204 72 q 184 51 159 35 q 134 18 106 8 q 79 -3 47 -3 q 34 -3 21 0 q 8 3 -4 10 q -21 -29 -36 -67 q -51 -105 -65 -140 q -79 -174 -91 -203 q -103 -231 -111 -253 q -120 -274 -125 -286 q -130 -299 -130 -299 l -182 -274 q -157 -215 -137 -167 q -117 -118 -100 -75 q -83 -33 -69 5 q -54 42 -39 77 q -46 88 -50 99 q -54 110 -55 117 q -56 128 -49 135 q -42 143 -30 143 q -21 143 -13 137 q 1 172 13 198 q 24 225 32 243 q 41 264 48 280 q 90 380 127 453 q 163 526 194 577 q 225 628 250 659 q 275 691 296 708 q 317 726 333 732 q 350 738 363 738 q 385 738 400 729 q 415 719 417 696 q 418 674 408 640 q 398 605 381 567 q 364 529 341 490 q 318 451 294 418 q 249 356 212 316 q 175 275 147 250 q 119 226 101 214 q 82 202 73 197 z m 386 689 q 386 697 383 703 q 379 709 370 709 q 364 709 354 707 q 345 704 333 695 q 320 687 305 669 q 289 652 270 624 q 250 595 228 552 q 205 510 179 450 q 162 412 140 357 q 117 303 90 239 q 113 255 138 280 q 164 304 189 333 q 215 362 240 395 q 265 427 287 461 q 310 495 328 528 q 347 561 361 591 q 374 621 381 646 q 388 671 386 689 z"},"Q":{"x_min":0,"x_max":741,"ha":741,"o":"m 740 -205 q 703 -226 667 -234 q 632 -243 604 -243 q 561 -243 531 -227 q 500 -211 479 -187 q 458 -162 443 -130 q 428 -99 416 -67 q 380 -84 344 -93 q 307 -102 268 -102 q 217 -102 172 -86 q 126 -70 93 -37 q 59 -4 39 45 q 20 95 20 161 q 20 232 38 302 q 57 373 91 436 q 125 500 172 554 q 220 609 278 649 q 336 688 404 711 q 471 734 544 734 q 588 734 620 722 q 652 711 675 693 q 697 676 712 655 q 726 634 734 616 q 742 598 745 585 q 748 573 749 571 l 724 566 q 723 567 721 578 q 718 589 712 605 q 706 621 694 639 q 683 657 664 673 q 645 688 618 699 q 591 709 554 709 q 498 709 440 686 q 382 663 329 623 q 275 583 229 529 q 182 475 147 412 q 112 350 92 283 q 72 216 72 150 q 72 92 88 50 q 104 7 130 -21 q 157 -49 193 -63 q 229 -77 269 -77 q 305 -77 339 -68 q 374 -59 406 -43 q 397 -20 387 1 q 378 22 366 39 q 354 55 339 64 q 324 74 304 74 q 290 74 278 72 q 265 69 256 66 q 246 63 240 61 q 235 59 235 59 l 225 83 q 226 83 234 86 q 242 88 254 92 q 266 95 282 97 q 298 100 315 100 q 346 100 369 91 q 391 82 407 66 q 423 50 435 29 q 446 8 456 -16 q 491 7 522 37 q 553 67 580 101 q 606 135 628 173 q 649 211 664 251 q 679 291 687 330 q 695 370 695 409 q 695 451 685 487 q 674 524 654 551 q 635 578 607 594 q 580 609 545 609 q 510 609 477 593 q 444 578 418 550 q 393 522 377 484 q 362 445 362 400 q 362 358 379 320 q 397 281 436 254 l 423 237 q 401 245 381 260 q 360 274 345 294 q 329 315 320 341 q 310 368 310 400 q 310 453 329 496 q 348 540 380 570 q 413 601 455 618 q 497 635 542 635 q 584 635 617 617 q 650 600 673 570 q 696 540 708 499 q 721 458 721 411 q 721 371 712 328 q 704 286 688 244 q 672 202 649 161 q 627 121 598 84 q 570 48 536 16 q 503 -16 465 -40 q 473 -60 480 -80 q 488 -101 498 -119 q 507 -138 519 -154 q 531 -170 547 -182 q 562 -194 583 -201 q 604 -208 632 -208 q 651 -208 669 -204 q 687 -200 699 -196 q 712 -191 720 -187 q 728 -183 728 -183 z"},"w":{"x_min":0,"x_max":494,"ha":494,"o":"m 135 325 q 107 282 88 244 q 68 206 56 173 q 43 140 37 113 q 31 86 31 67 q 31 22 57 22 q 73 22 93 38 q 113 53 134 79 q 155 105 175 139 q 195 172 210 208 l 211 208 q 225 243 242 277 q 259 311 276 338 l 298 325 q 290 302 278 269 q 267 236 256 200 q 246 165 238 129 q 230 93 230 64 q 230 56 231 49 q 232 41 234 35 q 236 29 240 26 q 244 22 250 22 q 266 22 287 37 q 309 52 330 75 q 351 98 370 126 q 390 154 403 181 q 383 217 383 263 q 383 288 388 306 q 393 323 399 334 q 406 345 415 350 q 423 354 430 354 q 442 354 452 342 q 461 329 461 296 q 461 273 453 243 q 445 213 430 181 q 439 168 452 160 q 464 152 481 152 l 477 128 q 459 129 445 137 q 430 145 419 157 q 403 126 382 97 q 360 68 336 46 q 312 23 286 10 q 259 -4 232 -4 q 221 -4 211 0 q 201 5 193 14 q 186 22 181 36 q 177 50 177 68 q 177 75 177 83 q 178 91 179 99 q 165 77 150 58 q 135 39 120 25 q 104 12 87 4 q 70 -4 53 -4 q 34 -4 20 3 q 6 9 -2 21 q -11 33 -15 49 q -20 65 -20 84 q -20 118 -9 153 q 2 188 21 222 q 40 256 64 286 q 88 315 114 338 z m 417 210 q 426 232 431 255 q 436 277 436 299 q 436 315 433 322 q 431 329 429 330 q 429 330 426 327 q 422 324 418 317 q 415 310 411 297 q 408 284 408 263 q 408 249 410 235 q 413 222 417 210 z"},"-":{"x_min":0,"x_max":391,"ha":391,"o":"m 49 188 l 67 225 l 312 225 l 294 188 z"},"E":{"x_min":0,"x_max":653,"ha":653,"o":"m 475 456 q 476 455 479 455 l 490 455 q 528 455 567 465 q 605 476 637 494 q 668 512 688 538 q 707 563 707 594 q 707 611 700 624 q 692 637 679 646 q 667 654 648 659 q 630 664 608 664 q 569 664 533 654 q 496 644 464 627 q 432 610 405 588 q 378 565 358 538 q 339 512 328 483 q 317 454 317 425 q 317 396 328 371 q 362 370 391 366 q 420 362 442 354 q 463 346 476 333 q 488 320 488 302 q 488 283 473 272 q 458 262 437 262 q 419 262 400 268 q 382 274 365 284 q 347 295 331 310 q 315 325 303 343 q 249 338 202 318 q 156 297 123 264 q 89 231 70 188 q 51 146 51 98 q 51 60 64 29 q 77 -2 103 -24 q 128 -46 167 -58 q 205 -70 255 -70 q 311 -70 361 -53 q 411 -36 454 -10 q 496 16 531 47 q 565 78 591 105 q 617 133 632 155 q 648 176 653 182 l 670 168 q 659 152 640 126 q 621 100 594 71 q 567 42 531 12 q 496 -18 452 -42 q 409 -65 357 -80 q 305 -95 245 -95 q 179 -95 131 -79 q 83 -62 52 -34 q 21 -6 5 31 q -10 68 -10 109 q -10 138 -2 167 q 5 197 20 226 q 35 254 59 279 q 83 305 116 324 q 148 344 191 356 q 233 368 286 371 q 277 388 272 407 q 268 427 268 447 q 268 485 280 518 q 293 552 315 580 q 337 608 367 630 q 397 652 432 667 q 466 683 503 691 q 540 699 576 699 q 613 699 642 691 q 671 684 691 670 q 711 656 722 637 q 732 618 732 595 q 732 569 722 547 q 711 524 694 506 q 676 488 652 473 q 628 459 602 449 q 575 439 547 434 q 519 429 492 429 q 483 429 478 430 q 473 430 472 430 z m 462 303 q 462 315 451 323 q 441 330 424 334 q 407 339 386 341 q 365 343 343 344 q 352 330 364 320 q 375 309 387 302 q 399 294 412 291 q 424 287 436 287 q 449 287 455 292 q 462 296 462 303 z"},"s":{"x_min":0,"x_max":273,"ha":273,"o":"m 157 383 q 154 379 150 374 q 146 369 143 362 q 139 355 136 347 q 134 338 134 326 q 134 315 139 298 q 144 280 150 258 q 156 235 161 208 q 166 182 166 153 q 166 112 155 80 q 144 48 125 26 q 163 46 200 85 q 236 123 273 182 l 290 167 q 269 133 242 99 q 216 65 184 38 q 152 11 116 -6 q 79 -23 38 -23 q 1 -23 -24 -6 q -49 12 -55 46 l -37 50 q -37 47 -34 40 q -32 34 -26 27 q -20 21 -10 16 q 0 11 15 11 q 34 11 49 20 q 64 29 76 44 q 87 59 95 77 q 103 96 107 116 q 112 136 114 155 q 116 174 116 190 q 116 206 115 225 q 113 244 112 261 q 110 278 109 291 q 108 304 108 308 l 108 309 q 102 302 93 289 q 84 276 74 260 q 64 245 54 229 q 44 212 36 199 q 28 186 23 177 q 18 169 18 168 l 0 182 q 0 183 12 203 q 24 224 43 255 q 62 287 87 325 q 111 363 137 399 l 157 383 z"},">":{"x_min":0,"x_max":391,"ha":391,"o":"m 323 334 l 77 144 l 61 165 l 288 340 l 182 510 l 205 524 z"},"l":{"x_min":0,"x_max":274,"ha":274,"o":"m 354 710 q 371 710 382 702 q 394 694 394 672 q 394 657 387 636 q 381 615 371 590 q 360 565 346 538 q 332 511 316 484 q 299 458 281 432 q 264 407 246 385 q 211 342 185 312 q 160 282 141 261 q 123 241 110 228 q 97 215 87 206 q 78 196 69 189 q 61 181 52 172 q 48 153 49 136 q 49 120 49 105 q 49 63 62 42 q 76 22 101 22 q 118 22 135 31 q 151 39 168 53 q 185 66 200 84 q 216 101 230 119 q 244 137 255 153 q 266 170 274 182 l 292 168 q 291 167 283 153 q 275 140 262 121 q 249 102 230 80 q 212 58 191 40 q 170 21 147 9 q 124 -3 100 -3 q 80 -3 62 4 q 43 12 30 28 q 16 44 7 70 q -1 95 -1 131 q -1 175 9 224 q 20 272 38 322 q 56 371 80 418 q 104 466 132 510 q 160 553 190 590 q 220 626 249 653 q 278 680 305 695 q 332 710 354 710 z m 61 215 q 103 258 141 302 q 180 347 214 390 q 248 433 276 474 q 305 515 325 551 q 345 587 356 617 q 367 646 367 668 q 367 672 363 678 q 359 685 354 685 q 339 685 314 665 q 289 645 260 611 q 231 576 200 530 q 169 484 142 432 q 114 380 93 324 q 71 269 61 215 z"},"8":{"x_min":0,"x_max":720,"ha":720,"o":"m 579 384 q 629 407 665 437 q 701 467 724 502 q 747 537 757 575 q 768 614 768 656 q 768 695 755 726 q 743 756 720 777 q 697 798 666 809 q 634 819 596 819 q 524 819 473 787 q 422 754 390 696 q 358 637 344 554 q 330 472 332 373 q 389 397 441 423 q 494 449 538 480 q 582 511 614 549 q 646 587 663 637 l 686 631 q 667 570 633 523 q 598 477 552 439 q 505 402 449 371 q 393 340 331 311 q 326 213 305 132 q 283 51 249 -7 q 214 -64 169 -96 q 124 -128 72 -128 q 42 -128 18 -118 q -6 -108 -23 -91 q -40 -73 -49 -48 q -59 -23 -59 6 q -59 69 -30 121 q -1 172 48 215 q 98 258 164 293 q 230 329 305 361 q 304 482 323 573 q 341 664 379 724 q 417 785 472 815 q 527 845 598 845 q 643 845 683 831 q 723 817 753 792 q 783 766 800 730 q 817 695 817 652 q 817 602 798 557 q 779 512 747 475 q 715 438 673 409 q 631 381 585 364 z m 72 -103 q 120 -103 160 -72 q 200 -42 230 11 q 261 65 280 138 q 298 211 304 297 q 229 262 177 229 q 125 196 91 166 q 56 136 35 109 q 15 82 5 59 q -5 35 -8 16 q -10 -3 -10 -17 q -10 -31 -6 -46 q -2 -61 8 -73 q 17 -86 33 -94 q 49 -103 72 -103 z"},"\\":{"x_min":0,"x_max":285,"ha":285,"o":"m 157 -48 l 98 705 l 128 705 l 188 -48 z"},"e":{"x_min":0,"x_max":356,"ha":356,"o":"m 37 111 q 36 105 36 100 q 35 94 35 88 q 35 70 40 54 q 45 39 55 27 q 65 15 80 8 q 95 1 114 1 q 178 1 238 44 q 297 88 356 182 l 373 167 q 341 114 308 77 q 274 40 241 17 q 208 -6 177 -16 q 145 -26 116 -26 q 95 -26 72 -21 q 48 -15 29 -1 q 9 13 -4 36 q -17 59 -17 93 q -17 129 -5 163 q 8 197 28 227 q 48 256 74 280 q 100 304 126 321 q 153 338 178 348 q 204 357 223 357 q 236 357 249 354 q 262 350 273 341 q 283 333 290 319 q 296 306 296 287 q 296 261 284 238 q 272 215 252 196 q 232 177 206 161 q 180 146 151 135 q 122 125 93 118 q 63 112 37 111 z m 41 132 q 74 136 103 146 q 131 156 155 171 q 179 186 198 204 q 217 221 229 239 q 242 257 249 274 q 256 291 256 304 q 256 317 249 325 q 242 333 232 333 q 210 333 184 317 q 157 302 130 275 q 103 248 79 211 q 56 174 41 132 z"},"b":{"x_min":0,"x_max":351,"ha":351,"o":"m 278 222 q 260 226 246 234 q 233 242 225 252 q 216 263 212 274 q 208 286 208 297 q 208 321 222 335 q 236 348 256 348 q 270 348 280 341 q 290 334 296 322 q 302 311 305 295 q 308 280 308 263 q 308 252 307 241 q 306 230 304 219 q 292 166 269 123 q 247 81 218 50 q 189 20 157 3 q 125 -13 94 -13 q 73 -13 54 -7 q 36 -1 21 12 q 7 26 -1 48 q -10 70 -10 103 q -10 144 6 200 q 22 256 60 332 q 115 438 170 521 q 193 557 219 591 q 245 625 271 652 q 297 679 323 696 q 349 712 372 712 q 375 712 382 711 q 390 710 397 706 q 405 702 411 693 q 417 685 417 669 q 417 651 408 624 q 398 596 380 563 q 361 529 333 491 q 306 454 270 416 q 234 377 190 341 q 146 304 95 272 q 78 235 67 205 q 55 175 48 151 q 42 127 39 108 q 36 90 36 76 q 36 57 41 45 q 46 32 55 25 q 63 18 75 15 q 86 12 98 12 q 121 12 143 24 q 165 36 184 54 q 204 73 220 97 q 236 120 249 143 q 261 167 269 187 q 276 208 278 222 z m 116 317 q 161 348 198 382 q 236 416 267 450 q 298 485 321 518 q 345 551 360 580 q 376 608 384 631 q 392 654 392 668 q 392 681 383 681 q 365 681 341 662 q 316 643 283 600 q 251 557 209 487 q 167 418 116 317 z m 282 247 q 282 251 282 256 q 283 260 283 264 q 283 291 276 307 q 269 323 256 323 q 253 323 250 322 q 246 321 242 319 q 239 316 236 311 q 234 306 234 298 q 234 278 248 265 q 262 252 282 247 z"},"%":{"x_min":0,"x_max":718,"ha":718,"o":"m 324 705 q 348 705 367 697 q 385 688 398 674 q 411 659 418 640 q 425 621 425 599 q 425 573 417 546 q 409 519 395 493 q 381 468 362 445 q 343 423 321 406 q 299 389 274 379 q 250 369 225 369 q 200 369 179 377 q 159 385 144 400 q 129 415 121 436 q 113 457 113 483 q 113 526 130 567 q 147 607 176 638 q 205 668 243 687 q 281 705 324 705 z m 331 676 q 298 676 267 658 q 235 639 210 610 q 185 581 170 544 q 154 508 154 472 q 154 432 175 411 q 195 391 227 391 q 249 391 271 400 q 292 410 312 426 q 331 442 348 463 q 364 483 376 506 q 388 529 395 552 q 402 575 402 596 q 402 619 396 635 q 389 650 379 659 q 369 668 356 672 q 344 676 331 676 z m 98 -10 l 642 705 l 683 705 l 139 -10 z m 576 326 q 600 326 619 318 q 637 309 650 295 q 663 280 670 261 q 677 242 677 220 q 677 194 669 167 q 661 140 647 115 q 633 89 614 66 q 595 44 573 27 q 551 10 526 0 q 501 -10 477 -10 q 452 -10 431 -2 q 411 6 396 21 q 381 36 373 57 q 365 78 365 104 q 365 147 382 188 q 399 228 428 259 q 457 290 495 308 q 533 326 576 326 z m 583 297 q 550 297 519 279 q 487 260 462 231 q 437 202 422 165 q 406 129 406 93 q 406 53 427 32 q 447 12 479 12 q 501 12 522 21 q 544 31 563 47 q 583 63 600 84 q 616 104 628 127 q 640 150 647 173 q 654 196 654 217 q 654 240 647 256 q 641 271 631 280 q 621 290 608 293 q 596 297 583 297 z"},"m":{"x_min":0,"x_max":655,"ha":655,"o":"m 406 266 q 420 282 436 296 q 451 311 466 321 q 481 331 496 337 q 511 342 524 342 q 535 342 546 339 q 556 335 564 327 q 573 320 578 308 q 583 296 583 280 q 583 257 576 234 q 570 211 560 190 q 550 168 539 148 q 528 128 519 110 q 509 92 502 75 q 496 59 496 45 q 496 35 502 30 q 507 25 514 25 q 526 25 544 40 q 561 55 580 78 q 599 101 618 128 q 638 156 655 182 l 673 168 q 667 158 656 141 q 646 125 633 105 q 620 86 604 66 q 589 46 572 31 q 554 15 536 5 q 517 -5 499 -5 q 488 -5 479 -2 q 469 0 462 7 q 455 14 450 24 q 446 35 446 51 q 446 72 453 93 q 460 113 472 133 q 483 153 496 173 q 509 193 520 212 q 531 232 539 252 q 546 271 546 292 q 546 302 542 308 q 538 314 527 314 q 510 314 491 301 q 472 287 452 263 q 431 240 410 209 q 388 178 367 143 q 346 109 325 73 q 304 38 285 5 l 244 27 q 270 80 293 122 q 315 164 333 198 q 350 232 359 260 q 369 288 369 313 q 369 318 368 323 q 367 328 364 332 q 361 336 357 339 q 352 341 345 341 q 328 341 311 326 q 294 311 275 284 q 256 257 234 222 q 212 187 187 147 q 162 107 133 66 q 104 24 69 -15 l 35 7 q 51 31 68 57 q 85 83 102 110 q 119 137 135 163 q 150 190 162 214 q 173 238 180 258 q 187 278 187 292 q 187 309 179 316 q 170 323 157 323 q 142 323 127 312 q 112 301 95 280 q 79 260 60 231 q 42 203 18 168 l 0 182 q 26 223 47 254 q 67 286 86 307 q 104 328 123 338 q 141 349 163 349 q 169 349 179 347 q 189 344 199 338 q 208 332 216 320 q 224 309 225 292 q 252 327 282 348 q 312 369 338 369 q 357 369 371 361 q 384 354 392 341 q 400 329 404 314 q 407 298 407 283 q 407 279 407 274 q 407 270 406 266 z"},"#":{"x_min":0,"x_max":500,"ha":500,"o":"m 75 49 l 142 225 l 68 225 l 79 251 l 152 251 l 217 420 l 143 420 l 153 447 l 228 447 l 290 607 l 321 607 l 259 447 l 374 447 l 436 607 l 467 607 l 405 447 l 483 447 l 472 420 l 395 420 l 330 251 l 408 251 l 397 225 l 320 225 l 252 49 l 221 49 l 289 225 l 173 225 l 106 49 z m 184 251 l 299 251 l 364 420 l 249 420 z"},",":{"x_min":0,"x_max":171,"ha":171,"o":"m -21 -53 q -2 -43 15 -30 q 32 -16 39 -3 q 23 0 17 10 q 10 20 10 31 q 10 46 21 56 q 31 66 45 66 q 61 66 71 56 q 81 45 81 31 q 81 15 73 0 q 64 -15 51 -28 q 38 -41 21 -52 q 5 -62 -12 -69 z"},"n":{"x_min":0,"x_max":501,"ha":501,"o":"m 408 253 q 408 232 400 211 q 393 189 382 167 q 371 146 358 125 q 345 104 334 84 q 323 64 315 47 q 308 29 308 14 q 308 3 313 -1 q 318 -5 324 -5 q 342 -5 365 13 q 388 32 412 60 q 436 87 459 120 q 482 153 501 182 l 519 168 q 515 163 505 145 q 495 128 479 106 q 464 83 446 59 q 427 35 405 15 q 384 -5 361 -19 q 338 -32 315 -32 q 302 -32 292 -27 q 281 -23 273 -15 q 266 -7 261 3 q 257 14 257 25 q 257 44 265 67 q 274 89 287 112 q 299 136 314 159 q 330 183 342 205 q 355 226 364 244 q 372 263 372 276 q 372 291 364 301 q 356 312 341 312 q 326 312 305 299 q 285 286 259 261 q 234 236 204 199 q 174 163 139 117 q 119 90 100 65 q 91 54 83 43 q 75 32 66 21 q 58 10 51 0 q 43 -10 38 -18 l -5 0 l 52 79 q 64 95 77 114 q 89 133 102 154 q 114 174 125 194 q 137 215 146 234 q 161 264 166 283 q 171 302 171 314 q 171 327 167 331 q 162 335 153 335 q 144 335 132 326 q 120 316 107 302 q 94 287 81 268 q 68 249 57 230 q 45 212 35 195 q 24 179 18 168 l 0 182 q 25 221 45 254 q 65 286 84 310 q 103 333 121 346 q 139 359 159 359 q 169 359 179 354 q 189 350 197 342 q 205 333 209 321 q 213 309 213 292 q 213 280 210 266 q 232 287 250 301 q 269 314 285 323 q 300 331 313 334 q 327 337 337 337 q 347 337 359 334 q 371 331 382 321 q 393 312 400 296 q 408 279 408 253 z"},"h":{"x_min":0,"x_max":419,"ha":419,"o":"m 66 191 q 92 226 120 256 q 148 285 176 307 q 205 328 232 340 q 260 352 286 352 q 303 352 315 347 q 326 341 333 333 q 339 324 342 314 q 345 304 345 293 q 345 276 337 256 q 330 235 319 213 q 308 191 295 168 q 283 146 272 124 q 261 102 253 81 q 246 60 246 42 q 246 31 251 21 q 256 12 270 12 q 285 12 304 28 q 323 43 343 68 q 363 93 383 123 q 402 153 419 182 l 437 168 q 432 161 422 145 q 413 128 401 108 q 388 88 373 66 q 357 45 340 27 q 323 9 304 -2 q 285 -14 265 -14 q 252 -14 240 -11 q 227 -8 217 0 q 207 8 200 21 q 194 35 194 55 q 194 79 202 104 q 210 128 222 153 q 234 177 248 199 q 262 222 274 242 q 286 262 294 279 q 302 295 302 306 q 302 326 283 326 q 255 326 224 308 q 193 290 162 260 q 130 231 100 195 q 70 158 43 122 l -31 -18 l -75 0 q -13 135 44 267 q 102 399 162 528 q 171 548 184 572 q 196 595 211 619 q 225 642 242 664 q 258 685 276 702 q 293 718 312 728 q 331 738 350 738 q 372 738 384 726 q 396 714 396 692 q 396 669 383 640 q 371 611 351 579 q 330 547 303 513 q 276 479 246 445 q 216 411 185 380 q 154 348 126 321 z m 353 712 q 331 712 312 696 q 294 679 272 640 q 251 602 223 540 q 195 478 155 387 q 209 439 249 489 q 290 538 316 578 q 343 619 357 649 q 370 679 370 693 q 370 702 365 707 q 360 712 353 712 z"},"z":{"x_min":0,"x_max":371,"ha":371,"o":"m 136 11 q 139 5 145 -6 q 150 -18 153 -33 q 184 -14 213 8 q 242 29 269 55 q 296 82 322 113 q 348 144 371 182 l 389 168 q 364 127 337 94 q 310 62 281 34 q 252 7 220 -16 q 189 -40 155 -61 q 153 -106 135 -152 q 117 -198 89 -241 q 61 -284 25 -322 q -10 -359 -47 -387 q -83 -415 -117 -431 q -152 -447 -178 -447 q -197 -447 -210 -440 q -223 -434 -231 -423 q -239 -413 -242 -401 q -246 -389 -246 -377 q -246 -349 -228 -317 q -210 -284 -176 -249 q -142 -214 -91 -178 q -40 -142 26 -106 q 49 -94 71 -82 q 94 -69 116 -56 q 116 -54 116 -51 q 117 -48 117 -46 q 117 -31 115 -21 q 112 -10 108 -3 q 82 -14 63 -14 q 45 -14 33 -5 q 21 3 21 18 q 21 34 34 42 q 48 51 67 51 q 92 51 114 34 q 137 52 158 79 q 179 107 195 139 q 211 171 221 204 q 230 238 230 267 q 230 283 226 294 q 222 306 215 313 q 208 320 200 323 q 191 327 181 327 q 161 327 143 317 q 125 307 108 292 q 92 276 78 258 q 64 239 53 222 q 42 204 33 190 q 24 175 18 168 l 0 182 q 6 190 15 205 q 24 221 36 240 q 48 259 63 279 q 79 299 97 315 q 115 332 136 342 q 157 353 181 353 q 204 353 222 345 q 241 337 254 324 q 267 311 274 292 q 281 272 281 249 q 281 215 269 180 q 257 146 238 114 q 218 83 191 56 q 165 29 136 11 z m 12 -256 q 27 -237 42 -216 q 57 -195 70 -173 q 83 -151 94 -130 q 104 -108 110 -87 l 39 -128 q -24 -163 -68 -193 q -111 -224 -140 -250 q -168 -276 -185 -297 q -201 -318 -209 -334 q -217 -350 -219 -361 q -220 -371 -220 -376 q -220 -383 -219 -390 q -217 -397 -213 -402 q -209 -408 -202 -411 q -195 -415 -184 -415 q -172 -415 -154 -408 q -136 -401 -112 -383 q -88 -365 -58 -334 q -27 -304 12 -256 z m 94 20 q 87 24 80 26 q 72 28 66 28 q 45 28 45 19 q 45 10 63 10 q 68 10 78 12 q 87 14 94 20 z"},"B":{"x_min":0,"x_max":1010,"ha":1010,"o":"m 821 702 q 813 692 806 683 q 799 674 792 665 q 841 646 872 620 q 902 593 918 564 q 935 535 941 507 q 946 479 946 458 q 946 430 937 404 q 927 377 911 356 q 896 334 875 319 q 854 303 831 294 q 878 255 901 208 q 924 160 924 111 q 924 70 907 33 q 891 -3 862 -31 q 833 -58 794 -74 q 754 -90 710 -90 q 671 -90 639 -78 q 606 -65 581 -44 q 555 -22 536 7 q 518 36 507 69 l 531 77 q 549 18 591 -14 q 632 -46 691 -46 q 727 -46 760 -32 q 793 -19 818 4 q 843 27 857 59 q 872 90 872 127 q 872 152 865 174 q 858 197 847 217 q 836 237 822 254 q 808 271 793 284 q 780 281 767 280 q 754 278 741 278 q 724 278 705 281 q 687 284 672 289 q 657 294 648 303 q 638 312 638 325 q 638 328 640 333 q 641 339 646 344 q 650 350 660 354 q 669 358 685 358 q 700 358 716 354 q 731 351 745 345 q 759 340 772 333 q 786 326 796 318 q 814 326 832 340 q 850 353 864 373 q 879 392 888 417 q 897 443 897 475 q 897 530 867 575 q 836 619 775 643 q 746 602 721 561 q 695 521 673 480 q 651 439 632 399 q 613 358 595 317 q 555 222 516 155 q 478 88 434 45 q 390 3 339 -17 q 287 -37 221 -37 q 169 -37 132 -20 q 95 -3 71 26 q 47 56 36 94 q 24 133 24 177 q 24 226 40 278 q 56 330 86 382 q 106 415 135 450 q 164 485 201 520 q 238 554 283 585 q 329 616 382 639 q 435 663 495 677 q 556 690 623 690 q 664 690 698 686 q 731 682 760 674 q 771 686 783 697 q 794 708 807 719 z m 626 500 q 652 542 680 580 q 708 618 741 653 q 722 658 701 660 q 681 663 658 663 q 584 663 512 642 q 441 622 376 586 q 312 550 256 500 q 201 450 161 392 q 121 333 98 269 q 75 204 75 137 q 75 104 84 76 q 93 49 111 30 q 129 11 156 0 q 183 -10 217 -10 q 275 -10 319 11 q 362 33 396 71 q 430 108 458 158 q 485 208 511 265 q 537 322 564 382 q 592 442 626 500 z m 763 309 q 756 314 746 319 q 736 323 725 326 q 714 330 704 332 q 693 333 685 333 q 671 333 668 330 q 664 327 664 325 q 664 320 671 317 q 677 313 687 311 q 697 308 709 307 q 722 305 733 305 q 739 305 746 306 q 752 306 763 309 z"},"K":{"x_min":0,"x_max":1157,"ha":1157,"o":"m 820 660 q 791 649 767 643 q 743 636 721 632 q 700 628 680 626 q 661 625 640 625 q 607 625 571 630 q 536 634 502 634 q 458 634 417 623 q 376 611 345 589 q 314 566 295 532 q 277 498 277 452 q 277 424 286 401 q 294 378 311 362 q 328 346 352 337 q 375 329 405 329 q 439 329 464 337 q 489 345 505 355 q 521 366 530 375 q 538 383 539 384 l 560 369 q 558 367 546 355 q 534 344 511 331 q 489 317 457 307 q 424 296 382 296 q 355 296 326 303 q 298 311 274 328 q 251 346 236 375 q 221 403 221 446 q 221 480 231 510 q 242 539 261 563 q 280 587 306 605 q 332 624 363 636 q 393 648 427 654 q 461 661 497 661 q 512 661 532 659 q 552 657 573 656 q 595 654 615 652 q 636 650 652 650 q 670 650 691 653 q 711 655 737 661 q 762 667 792 677 q 822 688 860 704 l 872 682 q 872 682 862 672 q 852 662 833 636 q 815 610 791 565 q 767 520 737 450 q 708 380 678 311 q 648 242 613 180 q 579 118 537 65 q 496 12 444 -27 q 392 -65 328 -87 q 264 -109 183 -109 q 134 -109 94 -98 q 53 -86 23 -65 q -6 -44 -22 -14 q -39 17 -39 55 q -39 102 -19 137 q 1 173 34 197 q 67 221 111 233 q 155 245 202 245 q 247 245 292 236 q 337 227 379 211 l 370 187 q 339 199 301 205 q 264 211 231 211 q 181 211 141 200 q 102 189 74 169 q 46 149 32 120 q 18 91 18 56 q 18 20 34 -6 q 51 -31 78 -48 q 105 -64 138 -72 q 171 -80 203 -80 q 262 -80 309 -64 q 357 -48 396 -21 q 434 7 465 43 q 495 80 521 122 q 546 164 568 208 q 589 252 609 295 q 644 375 680 446 q 695 477 713 508 q 730 539 748 568 q 766 596 784 620 q 803 645 820 660 z m 1316 542 q 1316 542 1320 550 q 1324 558 1329 570 q 1333 583 1337 598 q 1341 614 1341 630 q 1341 646 1335 660 q 1329 674 1318 684 q 1308 694 1293 700 q 1278 706 1262 706 q 1240 706 1219 694 q 1198 682 1176 656 q 1153 629 1126 586 q 1100 543 1066 481 q 1048 447 1029 420 q 1010 394 992 374 q 973 354 955 339 q 937 325 920 315 q 936 296 947 268 q 958 240 958 199 q 958 177 952 150 q 947 124 940 97 q 934 70 928 45 q 923 20 923 0 q 923 -26 931 -42 q 938 -59 951 -68 q 963 -77 977 -80 q 992 -83 1004 -83 q 1025 -83 1045 -76 q 1064 -69 1079 -61 q 1097 -52 1112 -39 l 1128 -59 q 1126 -60 1115 -69 q 1104 -77 1085 -87 q 1066 -97 1042 -104 q 1018 -112 992 -112 q 965 -112 942 -103 q 919 -94 902 -77 q 885 -60 875 -36 q 866 -13 866 16 q 866 43 873 70 q 879 97 888 123 q 896 149 903 173 q 910 198 910 220 q 910 240 905 260 q 900 281 887 299 q 865 292 844 288 q 824 284 797 284 q 775 284 763 289 q 750 294 744 301 q 738 307 736 314 q 734 320 734 324 q 734 344 753 359 q 771 373 803 373 q 820 373 843 365 q 867 358 892 340 q 919 359 942 388 q 964 417 985 451 q 1005 486 1025 524 q 1044 562 1065 599 q 1102 666 1148 701 q 1194 737 1246 737 q 1269 737 1290 730 q 1312 723 1329 709 q 1346 695 1357 676 q 1367 656 1367 630 q 1367 612 1363 594 q 1359 577 1354 563 q 1349 549 1344 540 q 1339 531 1339 529 z m 865 324 q 852 334 835 341 q 818 348 802 348 q 783 348 772 341 q 762 334 762 326 q 762 320 769 315 q 776 310 797 310 q 812 310 830 313 q 849 317 865 324 z"},"R":{"x_min":0,"x_max":1058,"ha":1058,"o":"m 885 702 q 854 684 826 657 q 856 644 882 625 q 907 605 926 579 q 945 553 955 521 q 966 488 966 449 q 966 416 954 386 q 943 357 923 333 q 902 310 874 293 q 846 277 813 271 q 829 249 839 222 q 849 195 849 164 q 849 151 846 134 q 842 117 837 98 q 832 79 826 59 q 820 40 815 23 q 810 7 806 -6 q 803 -19 803 -24 q 803 -39 811 -47 q 819 -55 833 -55 q 859 -55 882 -44 q 905 -33 925 -14 q 945 4 963 28 q 981 52 998 79 q 1014 105 1029 132 q 1044 158 1058 182 l 1076 168 q 1045 114 1018 68 q 991 22 963 -10 q 935 -43 903 -62 q 871 -81 831 -81 q 793 -81 772 -60 q 751 -39 751 -1 q 751 25 759 49 q 767 73 777 96 q 786 119 794 142 q 802 165 802 190 q 802 212 795 231 q 788 250 775 267 q 760 267 740 269 q 721 270 704 274 q 687 279 675 287 q 663 295 663 309 q 663 321 673 329 q 683 336 702 336 q 724 336 744 326 q 765 316 785 300 q 813 307 837 323 q 862 340 880 363 q 897 386 907 415 q 917 443 917 473 q 917 503 909 529 q 901 555 886 575 q 871 596 850 611 q 830 626 805 637 q 768 596 737 544 q 707 491 678 433 q 650 375 624 314 q 598 253 569 196 q 541 138 508 87 q 476 37 436 -1 q 397 -40 349 -62 q 301 -83 241 -83 q 194 -83 153 -69 q 112 -54 81 -26 q 50 3 32 45 q 15 87 15 142 q 15 175 23 216 q 31 257 48 302 q 66 346 94 392 q 121 438 160 480 q 199 523 250 561 q 301 599 365 627 q 429 655 507 671 q 585 687 679 687 q 710 687 742 682 q 773 677 802 667 q 819 680 838 692 q 856 704 877 715 z m 229 -58 q 281 -58 322 -37 q 363 -16 396 20 q 430 56 457 105 q 485 153 511 208 q 537 263 564 323 q 590 382 622 439 q 653 497 691 550 q 729 604 778 647 q 733 660 684 660 q 593 660 511 636 q 430 611 360 570 q 290 528 233 474 q 177 419 137 359 q 97 298 76 236 q 54 173 54 116 q 54 80 67 48 q 79 17 102 -7 q 125 -30 157 -44 q 189 -58 229 -58 z m 750 294 q 738 302 724 308 q 710 314 700 314 q 693 314 691 312 q 688 310 688 308 q 688 303 695 301 q 701 298 711 296 q 720 294 731 294 q 741 293 750 294 z"},"T":{"x_min":0,"x_max":763,"ha":763,"o":"m 1114 693 q 1083 673 1048 659 q 1014 645 977 637 q 940 628 902 625 q 863 622 824 622 q 774 622 719 627 q 664 632 609 638 q 555 644 504 649 q 453 654 412 654 q 352 654 303 638 q 253 623 218 595 q 183 567 164 528 q 145 488 145 440 q 145 406 156 379 q 167 352 189 333 q 210 315 240 305 q 270 295 306 295 q 337 295 370 302 q 403 310 436 325 l 446 305 q 413 286 370 275 q 328 264 284 264 q 247 264 212 274 q 177 285 150 307 q 123 329 107 362 q 91 395 91 439 q 91 483 104 518 q 117 553 140 580 q 163 607 194 626 q 225 645 260 657 q 295 670 333 676 q 372 681 409 681 q 454 681 506 676 q 557 670 611 664 q 665 658 719 653 q 773 647 824 647 q 862 647 899 651 q 936 654 971 662 q 1006 669 1038 682 q 1071 695 1101 715 z m 771 579 q 730 529 698 474 q 666 420 639 365 q 612 311 587 257 q 563 204 537 156 q 510 107 480 67 q 450 26 412 -4 q 374 -34 324 -51 q 275 -67 212 -67 q 156 -67 113 -53 q 69 -39 40 -13 q 11 12 -4 46 q -20 80 -20 119 q -20 134 -18 148 q -16 162 -12 173 l 13 166 q 10 156 8 144 q 6 132 6 119 q 6 79 23 48 q 40 18 68 -2 q 96 -22 131 -32 q 167 -42 204 -42 q 258 -42 300 -23 q 341 -5 375 27 q 410 59 438 102 q 466 145 492 194 q 519 244 545 297 q 572 350 603 402 q 634 455 671 503 q 708 552 756 592 z"},"P":{"x_min":0,"x_max":876,"ha":876,"o":"m 909 713 q 874 687 843 650 q 873 632 894 610 q 914 587 927 564 q 939 542 944 519 q 950 497 950 478 q 950 430 932 394 q 914 359 884 335 q 854 312 816 301 q 778 289 737 289 q 691 289 646 299 q 626 256 602 213 q 578 170 550 131 q 522 91 489 57 q 456 23 418 -1 q 380 -26 336 -40 q 292 -54 243 -54 q 194 -54 153 -39 q 112 -23 83 7 q 53 37 36 80 q 20 124 20 179 q 20 251 44 318 q 69 385 112 443 q 155 501 214 549 q 272 596 340 630 q 408 664 482 682 q 557 701 631 701 q 689 701 734 691 q 779 682 814 666 q 833 683 855 698 q 876 713 901 725 z m 605 340 q 628 387 650 430 q 672 473 695 512 q 717 551 742 585 q 766 619 794 647 q 762 660 724 666 q 687 672 644 672 q 584 672 528 658 q 471 644 419 619 q 366 594 319 561 q 271 527 230 487 q 189 448 156 405 q 124 361 100 317 q 77 273 65 231 q 52 188 52 149 q 52 112 66 79 q 80 47 104 23 q 128 -1 161 -15 q 195 -28 235 -28 q 297 -28 346 -4 q 396 21 438 66 q 479 111 517 174 q 555 238 594 316 q 543 336 500 367 l 507 381 q 531 369 555 359 q 579 348 605 340 z m 898 505 q 898 549 880 580 q 861 610 827 631 q 783 573 742 497 q 702 420 659 327 q 673 324 688 323 q 702 322 716 322 q 753 322 786 335 q 819 348 844 372 q 869 396 884 430 q 898 464 898 505 z"},"|":{"x_min":0,"x_max":500,"ha":500,"o":"m 16 -128 l 435 730 l 484 730 l 65 -128 z"},"t":{"x_min":0,"x_max":267,"ha":267,"o":"m 99 403 q 104 411 116 432 q 129 452 146 477 q 163 502 182 527 q 202 552 221 570 l 243 557 q 222 522 200 483 q 178 444 157 403 l 316 403 l 306 377 l 144 377 q 122 333 102 290 q 83 247 68 207 q 54 167 45 133 q 37 99 37 73 q 37 42 52 28 q 66 14 88 14 q 107 14 127 25 q 147 37 166 54 q 186 72 203 93 q 220 114 234 132 q 247 151 256 165 q 265 179 267 182 l 285 168 q 268 140 246 108 q 225 77 198 50 q 172 22 142 5 q 111 -13 75 -13 q 53 -13 37 -5 q 21 2 9 16 q -2 30 -8 49 q -13 68 -13 91 q -13 105 -9 132 q -4 159 7 196 q 19 233 37 279 q 56 325 85 377 l 4 377 l 14 403 z"},"M":{"x_min":0,"x_max":1208,"ha":1208,"o":"m 1292 -168 q 1290 -169 1278 -175 q 1267 -181 1248 -188 q 1229 -195 1204 -200 q 1180 -206 1153 -206 q 1110 -206 1076 -191 q 1042 -176 1018 -148 q 995 -121 982 -82 q 969 -43 969 4 q 969 50 980 104 q 992 159 1010 216 q 1028 274 1051 332 q 1073 389 1096 441 q 1120 493 1141 536 q 1162 580 1177 608 q 1149 577 1114 536 q 1079 496 1039 447 q 1000 398 957 344 q 914 289 870 229 q 826 170 783 108 q 740 45 701 -18 l 678 -10 q 685 70 702 148 q 719 227 740 299 q 761 372 785 435 q 809 499 830 549 q 797 504 765 452 q 732 399 699 344 q 666 289 631 233 q 596 177 558 125 q 520 74 477 29 q 435 -16 387 -49 q 340 -82 286 -101 q 232 -120 170 -120 q 123 -120 84 -105 q 46 -91 18 -67 q -9 -42 -24 -9 q -39 24 -39 63 q -39 101 -27 131 q -15 162 5 185 q 25 209 52 226 q 78 244 107 255 q 137 266 167 271 q 197 277 224 277 q 281 277 333 263 q 384 250 432 216 l 415 197 q 415 197 402 206 q 390 214 367 225 q 344 235 310 243 q 276 251 233 251 q 191 251 152 240 q 112 229 82 206 q 52 184 34 149 q 16 115 16 68 q 16 35 29 7 q 42 -21 65 -42 q 88 -63 120 -75 q 152 -86 191 -86 q 250 -86 304 -62 q 357 -37 407 6 q 457 48 503 105 q 549 162 592 225 q 635 288 675 354 q 715 420 752 482 q 790 544 826 598 q 861 652 896 691 l 917 678 q 896 612 880 563 q 865 513 853 476 q 842 438 834 411 q 826 383 820 362 q 814 340 809 323 q 805 306 800 289 q 795 271 790 252 q 784 233 775 208 q 767 183 756 150 q 745 117 729 72 q 770 134 813 194 q 856 254 899 311 q 942 367 983 418 q 1024 469 1061 513 q 1098 557 1129 593 q 1160 629 1183 654 q 1206 680 1219 694 q 1232 708 1232 708 l 1253 693 q 1224 622 1196 551 q 1167 479 1141 411 q 1115 343 1093 280 q 1070 217 1054 162 q 1037 107 1028 62 q 1018 17 1018 -15 q 1018 -53 1027 -84 q 1036 -115 1053 -136 q 1070 -158 1095 -169 q 1121 -181 1152 -181 q 1176 -181 1199 -175 q 1222 -170 1239 -164 q 1257 -157 1268 -152 q 1278 -146 1279 -146 z"},"g":{"x_min":0,"x_max":451,"ha":451,"o":"m 186 17 q 161 0 134 -11 q 106 -21 82 -21 q 63 -21 44 -16 q 26 -11 11 2 q -4 14 -14 35 q -23 55 -23 85 q -23 122 -10 156 q 3 189 25 219 q 47 248 75 271 q 104 295 134 312 q 164 329 193 338 q 223 348 248 348 q 271 348 288 343 q 305 337 317 330 q 329 322 335 313 q 342 305 347 297 l 373 332 l 389 321 q 389 320 381 305 q 374 291 361 266 q 348 241 331 207 q 314 174 296 136 q 278 99 259 59 q 240 19 223 -20 q 268 5 301 29 q 335 52 362 76 q 388 100 410 126 q 431 152 451 182 l 469 168 q 450 137 427 110 q 404 83 374 56 q 343 29 302 1 q 262 -27 206 -61 q 159 -174 116 -249 q 73 -323 35 -367 q -3 -410 -36 -428 q -69 -445 -96 -445 q -106 -445 -119 -443 q -131 -440 -142 -432 q -153 -424 -160 -411 q -167 -397 -167 -375 q -167 -334 -145 -294 q -124 -254 -82 -215 q -41 -175 19 -136 q 79 -97 154 -58 q 164 -37 171 -18 q 179 1 186 17 z m 211 70 q 225 95 238 119 q 250 144 264 168 q 278 192 294 217 q 310 243 330 270 q 329 277 325 285 q 321 293 314 300 q 307 306 296 311 q 286 315 271 315 q 254 315 233 311 q 212 306 188 295 q 165 285 141 267 q 117 249 94 221 q 60 181 42 141 q 24 102 24 69 q 24 37 40 21 q 56 4 84 4 q 113 4 146 22 q 179 41 211 70 z m -96 -420 q -77 -420 -57 -407 q -37 -393 -17 -369 q 4 -346 24 -314 q 44 -283 63 -248 q 83 -212 101 -175 q 119 -138 135 -103 q 62 -141 10 -182 q -41 -223 -74 -261 q -106 -298 -121 -329 q -136 -359 -136 -375 q -136 -395 -127 -408 q -119 -420 -96 -420 z"},"j":{"x_min":0,"x_max":268,"ha":268,"o":"m 208 323 q 189 289 168 247 q 148 206 127 162 q 106 117 86 71 q 65 25 45 -19 q 91 7 126 32 q 161 58 187 83 q 213 108 233 133 q 252 158 268 182 l 286 168 q 264 135 239 106 q 213 76 182 48 q 151 21 112 -7 q 73 -34 25 -63 q 7 -102 -9 -135 q -25 -169 -39 -197 q -63 -243 -93 -284 q -122 -324 -153 -354 q -183 -384 -213 -402 q -243 -419 -268 -419 q -278 -419 -288 -416 q -297 -412 -305 -405 q -313 -398 -318 -387 q -322 -376 -322 -361 q -322 -320 -302 -280 q -283 -240 -245 -201 q -208 -163 -154 -127 q -99 -90 -30 -57 q -14 -24 0 5 q 14 34 28 62 q 42 89 57 117 q 73 146 92 178 q 111 210 135 248 q 160 285 191 332 z m -267 -393 q -241 -393 -217 -373 q -192 -352 -166 -314 q -141 -277 -113 -224 q -85 -172 -54 -108 l -75 -119 q -126 -146 -167 -180 q -208 -213 -236 -247 q -264 -281 -279 -312 q -294 -342 -294 -363 q -294 -376 -288 -385 q -281 -393 -267 -393 z m 276 408 q 266 394 254 384 q 243 375 232 375 q 224 375 220 381 q 215 387 215 396 q 215 403 219 414 q 222 425 228 435 q 234 444 243 451 q 251 458 260 458 q 271 458 278 450 q 285 442 285 434 q 285 421 276 408 z"},"i":{"x_min":0,"x_max":182,"ha":182,"o":"m 219 433 q 219 423 214 413 q 209 402 202 394 q 194 386 185 380 q 176 375 167 375 q 158 375 154 381 q 149 387 149 396 q 149 404 152 415 q 155 425 161 435 q 167 444 175 451 q 184 458 194 458 q 205 458 212 450 q 219 442 219 433 z m 128 325 q 122 312 110 291 q 99 271 85 246 q 72 221 59 194 q 45 167 34 141 q 23 116 16 93 q 9 71 9 55 q 9 41 15 36 q 21 31 32 31 q 52 31 71 44 q 90 57 109 78 q 127 100 146 127 q 164 154 182 182 l 199 168 q 185 143 167 114 q 149 85 127 61 q 105 36 79 20 q 53 4 21 4 q -8 4 -23 21 q -39 39 -39 67 q -39 100 -24 135 q -9 171 14 206 q 37 241 63 273 q 90 305 112 332 z"},"y":{"x_min":0,"x_max":433,"ha":433,"o":"m 216 109 q 197 88 178 70 q 158 52 139 39 q 120 26 102 18 q 83 11 66 11 q 47 11 32 18 q 17 25 6 38 q -5 51 -11 69 q -17 87 -17 109 q -17 139 -5 170 q 7 202 27 232 q 46 262 70 289 q 93 316 116 335 l 137 321 q 131 312 121 298 q 110 283 99 264 q 87 245 75 222 q 63 200 53 176 q 43 153 37 129 q 31 106 31 85 q 31 76 33 67 q 35 58 39 51 q 43 44 50 40 q 57 36 67 36 q 84 36 105 47 q 125 57 147 75 q 168 94 191 118 q 214 143 236 170 q 258 198 278 228 q 299 257 316 286 q 332 312 348 338 q 363 364 379 389 l 402 377 q 401 376 393 359 q 384 342 370 312 q 356 283 337 244 q 318 205 297 161 q 276 118 255 72 q 233 26 212 -18 q 281 21 337 73 q 393 125 433 182 l 451 168 q 409 104 346 49 q 283 -6 194 -57 q 153 -144 115 -215 q 76 -287 37 -338 q -2 -390 -41 -418 q -80 -446 -120 -446 q -146 -446 -164 -428 q -181 -411 -181 -378 q -181 -351 -169 -322 q -157 -293 -135 -264 q -114 -235 -84 -206 q -55 -178 -20 -151 q 15 -125 53 -101 q 92 -77 131 -57 q 142 -36 153 -12 q 165 12 176 34 q 188 56 198 76 q 208 96 216 109 z m 109 -104 q 53 -139 5 -178 q -43 -218 -79 -256 q -114 -294 -134 -328 q -154 -362 -154 -385 q -154 -401 -145 -410 q -136 -419 -122 -419 q -103 -419 -83 -406 q -62 -394 -42 -371 q -22 -349 -2 -318 q 18 -288 37 -253 q 57 -218 75 -180 q 93 -142 109 -104 z"},"@":{"x_min":0,"x_max":817,"ha":817,"o":"m 477 184 q 455 159 435 143 q 415 126 396 117 q 377 108 358 104 q 340 101 322 101 q 304 101 287 107 q 271 113 259 125 q 246 136 239 153 q 232 170 232 193 q 232 227 245 258 q 257 289 278 317 q 299 344 326 367 q 353 390 382 406 q 410 423 438 432 q 465 441 488 441 q 533 441 556 426 q 579 411 584 380 q 594 393 604 405 q 615 417 626 430 l 642 423 q 636 410 624 389 q 612 369 598 344 q 584 319 570 292 q 555 264 543 239 q 532 214 524 192 q 517 171 517 157 q 517 144 520 136 q 523 127 528 123 q 533 118 540 116 q 546 114 553 114 q 580 114 604 129 q 627 144 648 168 q 668 192 685 224 q 702 255 713 288 q 725 321 731 353 q 738 385 738 411 q 738 461 723 502 q 708 542 681 571 q 655 599 618 614 q 582 629 538 629 q 485 629 431 611 q 376 593 327 560 q 277 527 234 481 q 190 436 158 381 q 126 327 108 266 q 90 206 90 142 q 90 98 104 60 q 118 22 144 -5 q 170 -32 208 -47 q 245 -62 293 -62 q 306 -62 323 -60 q 341 -57 359 -53 q 377 -49 394 -44 q 411 -39 424 -33 l 437 -55 q 402 -71 366 -79 q 330 -88 293 -88 q 241 -88 194 -71 q 148 -53 114 -20 q 79 14 59 63 q 39 112 39 176 q 39 247 59 310 q 78 374 113 427 q 147 481 193 524 q 240 567 293 597 q 347 627 405 644 q 463 660 521 660 q 572 660 621 644 q 669 628 706 597 q 743 566 765 520 q 788 474 788 414 q 788 382 779 346 q 771 310 755 274 q 740 238 718 206 q 696 173 670 148 q 643 123 612 107 q 582 92 548 92 q 529 92 515 98 q 501 103 492 112 q 482 122 478 134 q 473 146 473 160 q 473 161 474 164 q 474 167 475 171 q 475 175 476 178 q 476 182 477 184 z m 492 237 q 499 248 508 263 q 517 279 527 296 q 538 313 547 329 q 557 344 564 355 q 564 359 563 369 q 562 379 557 389 q 551 399 540 406 q 528 414 507 414 q 484 414 459 404 q 434 395 409 378 q 385 361 363 339 q 340 317 323 292 q 306 266 296 239 q 286 211 286 185 q 286 157 299 142 q 312 126 335 126 q 362 126 384 136 q 406 146 425 162 q 443 178 460 198 q 476 218 492 237 z"},".":{"x_min":0,"x_max":171,"ha":171,"o":"m 81 31 q 81 16 71 6 q 60 -5 45 -5 q 31 -5 20 6 q 10 16 10 31 q 10 45 20 55 q 31 66 45 66 q 60 66 71 55 q 81 45 81 31 z"},"p":{"x_min":0,"x_max":397,"ha":397,"o":"m 170 426 l 60 203 q 89 241 121 273 q 153 306 187 326 q 212 341 231 346 q 250 352 267 352 q 284 352 294 347 q 305 341 312 333 q 318 324 320 313 q 323 303 323 292 q 323 270 315 247 q 307 225 296 203 q 284 181 271 159 q 257 138 245 118 q 234 98 226 78 q 218 59 218 41 q 218 32 220 26 q 223 21 226 17 q 230 14 234 13 q 239 12 243 12 q 252 12 265 21 q 277 29 292 43 q 306 57 321 75 q 335 93 349 112 q 363 130 375 149 q 388 167 397 182 l 415 168 q 410 158 399 140 q 389 123 375 102 q 360 82 344 62 q 327 42 308 25 q 290 8 270 -2 q 251 -13 232 -13 q 220 -13 208 -9 q 196 -5 188 3 q 179 11 173 24 q 168 37 168 54 q 168 75 177 103 q 185 130 209 165 q 229 194 244 213 q 259 232 268 247 q 278 261 282 273 q 287 285 287 300 q 287 312 279 319 q 272 326 263 326 q 238 326 211 312 q 185 298 159 275 q 133 251 108 222 q 83 192 61 161 q 39 130 20 100 q 1 70 -12 47 q -26 23 -33 9 q -41 -6 -42 -6 q -62 -48 -82 -88 q -101 -127 -118 -162 q -136 -197 -150 -226 q -165 -255 -176 -277 q -187 -298 -193 -311 q -199 -323 -199 -323 l -252 -293 q -212 -217 -180 -156 q -148 -95 -119 -41 q -89 13 -61 63 q -33 114 -1 170 q 31 225 68 289 q 105 353 153 433 z"},"X":{"x_min":0,"x_max":1255,"ha":1255,"o":"m 585 323 q 539 273 478 248 q 418 223 355 223 q 312 223 273 235 q 233 247 203 271 q 173 294 155 329 q 137 363 137 409 q 137 454 151 490 q 165 527 189 556 q 213 584 245 605 q 276 626 312 640 q 347 654 384 661 q 421 668 456 668 q 536 668 596 647 q 656 626 695 590 q 734 554 754 505 q 773 457 773 401 q 773 380 771 361 q 822 440 878 495 q 934 550 988 585 q 1042 621 1091 641 q 1140 660 1177 669 q 1215 679 1238 681 q 1262 683 1265 683 l 1265 657 q 1263 657 1248 656 q 1233 655 1208 650 q 1183 645 1150 635 q 1116 625 1077 606 q 1039 587 996 559 q 953 530 910 489 q 867 448 825 392 q 783 336 745 263 q 726 227 716 191 q 707 156 707 123 q 707 89 716 59 q 726 29 747 6 q 768 -18 801 -32 q 834 -47 880 -51 q 895 0 918 43 q 941 86 970 119 q 1000 151 1034 169 q 1069 188 1106 188 q 1123 188 1135 183 q 1147 178 1155 170 q 1163 162 1167 151 q 1171 140 1171 128 q 1171 110 1162 89 q 1153 68 1137 46 q 1121 24 1098 3 q 1075 -18 1047 -35 q 1019 -51 986 -62 q 954 -73 917 -75 q 905 -109 895 -146 q 886 -183 881 -221 l 855 -217 q 855 -180 860 -144 q 865 -108 873 -74 q 823 -70 787 -53 q 750 -36 727 -10 q 703 17 692 51 q 680 84 680 123 q 680 133 681 144 q 682 155 684 166 q 644 116 591 74 q 537 31 474 0 q 411 -31 340 -48 q 270 -65 195 -65 q 144 -65 101 -58 q 58 -50 27 -35 q -4 -19 -22 5 q -39 29 -39 62 q -39 85 -32 103 q -24 121 -12 134 q 0 147 16 156 q 32 165 49 171 q 67 176 85 179 q 103 181 119 181 q 143 181 165 176 q 188 171 204 163 l 193 144 q 181 148 166 152 q 151 156 131 156 q 104 156 83 148 q 62 141 47 128 q 32 116 24 99 q 16 83 16 64 q 16 16 62 -12 q 107 -40 199 -40 q 257 -40 310 -27 q 364 -14 412 9 q 459 31 501 62 q 542 92 577 126 q 612 161 639 197 q 666 234 684 270 q 703 305 712 338 q 722 370 722 396 q 722 427 717 457 q 712 487 700 515 q 688 542 668 566 q 649 589 620 607 q 590 624 551 634 q 511 644 459 644 q 392 644 342 624 q 292 604 260 572 q 227 541 211 501 q 195 461 195 421 q 195 380 209 350 q 224 319 249 298 q 273 278 307 267 q 341 257 379 257 q 409 257 434 263 q 460 269 481 278 q 502 287 519 298 q 536 309 547 318 q 559 327 564 333 q 570 339 571 340 z m 1113 162 q 1093 162 1069 146 q 1045 130 1020 102 q 995 74 971 35 q 947 -4 927 -50 q 957 -47 984 -37 q 1012 -27 1036 -13 q 1061 1 1081 19 q 1101 37 1115 56 q 1129 75 1137 94 q 1146 112 1146 129 q 1146 144 1136 153 q 1126 162 1113 162 z"},"*":{"x_min":0,"x_max":342,"ha":342,"o":"m 224 548 l 150 438 l 112 469 l 202 557 l 84 595 l 104 640 l 212 578 l 200 705 l 249 705 l 235 578 l 344 640 l 364 595 l 247 557 l 336 469 l 298 438 z"},"Y":{"x_min":0,"x_max":988,"ha":988,"o":"m 303 60 q 288 64 276 67 q 264 69 252 71 q 240 72 228 73 q 215 74 201 74 q 155 74 114 58 q 73 42 42 14 q 12 -14 -6 -53 q -24 -93 -24 -140 q -24 -188 -5 -226 q 15 -264 48 -290 q 82 -316 128 -329 q 174 -343 228 -343 q 295 -343 352 -325 q 408 -307 457 -275 q 505 -243 547 -198 q 589 -154 628 -101 q 666 -47 702 13 q 737 74 773 138 q 743 105 713 79 q 684 54 655 36 q 626 18 598 9 q 569 0 540 0 q 522 0 503 4 q 484 9 469 21 q 454 32 444 51 q 435 69 435 95 q 435 112 441 131 q 448 150 461 172 q 475 194 495 219 q 516 245 543 276 q 576 313 598 347 q 620 381 633 411 q 647 440 653 467 q 659 493 659 515 q 659 560 642 591 q 626 623 598 643 q 570 663 534 673 q 497 682 457 682 q 414 682 371 674 q 328 666 288 650 q 248 635 213 612 q 178 589 152 559 q 126 530 112 494 q 97 458 97 416 q 97 383 108 355 q 119 328 140 308 q 161 289 190 278 q 220 267 258 267 q 283 267 309 273 q 335 279 361 290 q 387 301 411 317 q 436 333 458 354 l 473 338 q 447 310 418 289 q 389 268 358 254 q 327 241 296 234 q 265 228 235 228 q 194 228 159 239 q 124 250 97 272 q 70 294 55 327 q 40 360 40 405 q 40 455 58 497 q 77 539 109 572 q 141 606 183 631 q 225 657 271 674 q 317 691 365 699 q 413 708 457 708 q 510 708 553 694 q 597 681 627 654 q 658 627 674 588 q 691 549 691 498 q 691 445 676 400 q 662 354 639 315 q 617 275 592 242 q 566 208 544 180 q 521 151 507 128 q 492 104 492 84 q 492 73 496 62 q 500 51 507 43 q 515 35 526 30 q 537 25 552 25 q 580 25 614 43 q 648 60 685 90 q 722 120 760 161 q 799 201 835 248 q 864 297 894 347 q 925 396 958 444 q 992 491 1029 537 q 1066 582 1108 623 l 1125 607 q 1061 530 1009 448 q 958 365 912 281 q 867 198 825 117 q 783 37 739 -36 q 694 -108 644 -169 q 594 -231 532 -276 q 471 -320 395 -345 q 318 -371 221 -371 q 165 -371 111 -357 q 57 -343 15 -315 q -27 -287 -53 -244 q -78 -202 -78 -144 q -78 -100 -66 -65 q -53 -31 -32 -4 q -12 23 16 42 q 43 62 73 74 q 103 87 133 93 q 164 99 191 99 q 211 99 228 98 q 244 97 258 95 q 271 93 284 91 q 297 88 311 83 z"},"c":{"x_min":0,"x_max":338,"ha":338,"o":"m 275 296 q 278 304 278 313 q 278 329 266 338 q 253 347 227 347 q 205 347 182 337 q 160 328 140 311 q 119 294 101 271 q 83 249 71 222 q 58 195 50 165 q 42 135 42 104 q 42 80 48 63 q 53 46 63 35 q 73 24 86 20 q 100 15 117 15 q 151 15 183 30 q 214 45 243 70 q 271 94 296 124 q 320 153 338 182 l 356 168 q 330 124 300 91 q 271 57 239 35 q 208 12 176 1 q 144 -10 113 -10 q 88 -10 66 -3 q 44 4 27 19 q 10 34 0 58 q -10 81 -10 113 q -10 151 1 185 q 12 219 31 248 q 49 277 73 300 q 97 323 123 339 q 149 355 176 364 q 202 373 226 373 q 250 373 265 366 q 280 359 289 350 q 297 341 301 331 q 304 320 304 313 q 304 301 300 288 q 297 275 291 264 q 285 253 276 246 q 267 238 256 238 q 245 238 237 245 q 229 252 229 263 q 229 264 230 269 q 231 274 235 281 q 239 287 247 292 q 255 296 270 296 l 275 296 z"},"!":{"x_min":0,"x_max":372,"ha":372,"o":"m 115 119 l 94 127 l 364 730 l 420 704 z m 96 31 q 96 16 85 6 q 75 -5 60 -5 q 45 -5 35 6 q 24 16 24 31 q 24 45 35 55 q 45 66 60 66 q 75 66 85 55 q 96 45 96 31 z"},"/":{"x_min":0,"x_max":424,"ha":424,"o":"m -98 -48 l 529 705 l 570 705 l -57 -48 z"},"[":{"x_min":0,"x_max":343,"ha":343,"o":"m -128 -229 l 283 705 l 455 705 l 443 678 l 327 678 l -62 -203 l 55 -203 l 43 -229 z"},"6":{"x_min":0,"x_max":691,"ha":691,"o":"m 718 520 q 719 521 722 536 q 725 550 725 571 q 725 601 715 625 q 705 649 687 666 q 669 684 644 693 q 619 703 590 703 q 550 703 507 688 q 463 674 420 648 q 377 622 335 586 q 293 550 255 506 q 217 463 185 413 q 153 364 130 311 q 107 259 94 205 q 81 150 81 97 q 81 49 90 10 q 100 -29 119 -56 q 139 -84 169 -99 q 199 -113 241 -113 q 292 -113 339 -93 q 387 -72 428 -37 q 470 -3 504 41 q 539 85 563 133 q 588 180 602 226 q 616 272 616 311 q 616 347 605 376 q 594 405 573 425 q 553 445 523 456 q 494 467 458 467 q 418 467 376 455 q 333 442 292 415 q 251 388 214 346 q 177 304 148 246 l 125 257 q 156 319 197 364 q 237 409 281 438 q 326 466 373 480 q 419 493 461 493 q 505 493 542 479 q 579 464 606 436 q 632 409 647 368 q 662 328 662 277 q 662 234 648 186 q 633 138 607 91 q 582 44 545 2 q 508 -41 464 -73 q 419 -106 368 -125 q 316 -145 261 -145 q 210 -145 168 -127 q 126 -110 97 -77 q 67 -44 51 6 q 34 55 34 120 q 34 195 56 270 q 79 344 117 412 q 155 480 207 539 q 258 597 317 640 q 376 683 440 708 q 504 732 566 732 q 615 732 650 718 q 685 705 707 682 q 729 660 740 630 q 750 601 750 570 q 750 556 748 541 q 746 526 742 512 z"},"r":{"x_min":0,"x_max":290,"ha":290,"o":"m 308 168 q 301 158 291 139 q 281 121 268 100 q 254 79 239 57 q 223 35 204 17 q 185 0 163 -12 q 141 -23 116 -23 q 103 -23 90 -19 q 78 -15 69 -6 q 60 3 54 16 q 49 29 49 46 q 49 70 58 96 q 68 123 81 147 q 93 171 106 192 q 119 212 125 224 q 130 236 130 245 q 130 251 126 256 q 122 261 116 266 q 110 271 103 276 q 97 281 92 288 q 80 269 67 249 q 56 231 43 210 q 30 189 18 168 l 0 182 l 104 346 l 119 338 q 118 335 115 329 q 113 323 113 315 q 113 310 115 305 q 117 300 122 295 q 142 278 153 268 q 164 259 169 253 q 174 248 176 244 q 177 240 177 234 q 177 229 175 220 q 173 212 168 200 q 164 188 156 173 q 147 157 135 136 q 128 123 121 110 q 114 97 108 84 q 103 71 99 58 q 96 44 96 32 q 96 23 98 17 q 101 12 105 9 q 110 6 115 5 q 120 4 125 4 q 141 4 157 13 q 173 23 188 38 q 204 53 218 73 q 232 92 246 112 q 259 132 270 150 q 281 168 290 182 z"},"2":{"x_min":0,"x_max":724,"ha":724,"o":"m 425 320 q 412 314 394 309 q 376 303 356 299 q 336 295 315 292 q 294 290 275 290 q 238 290 205 297 q 172 304 148 320 q 123 336 109 361 q 94 386 94 421 q 94 462 112 500 q 129 539 160 573 q 190 606 231 635 q 271 663 318 683 q 364 703 413 714 q 463 726 511 726 q 559 726 601 716 q 644 706 675 683 q 707 660 725 624 q 743 588 743 536 q 743 491 726 445 q 709 398 679 353 q 649 308 609 264 q 569 221 522 181 q 475 142 424 109 q 373 75 322 50 q 364 32 405 18 q 446 4 488 4 q 518 4 547 12 l 554 -12 q 520 -21 487 -21 q 460 -21 434 -17 q 409 -12 384 -4 q 360 4 336 14 q 312 24 290 34 q 238 11 190 -2 q 143 -14 103 -14 q 83 -14 67 -11 q 51 -7 38 0 q 26 7 19 19 q 12 30 12 46 q 12 56 17 67 q 22 79 34 88 q 46 98 66 105 q 86 111 116 111 q 137 111 158 108 q 179 104 200 98 q 220 92 240 84 q 260 77 280 68 q 328 93 377 126 q 426 159 472 198 q 518 237 559 281 q 600 325 630 370 q 660 416 678 462 q 695 508 695 552 q 695 594 680 623 q 665 651 639 668 q 613 685 579 692 q 544 700 506 700 q 463 700 420 688 q 377 676 337 656 q 298 636 264 609 q 229 583 204 552 q 179 521 165 488 q 150 456 150 424 q 150 395 162 374 q 173 354 192 341 q 211 328 234 323 q 257 317 281 317 q 308 317 328 319 q 349 321 365 325 q 381 328 394 333 q 407 337 418 341 z m 101 11 q 130 11 168 22 q 206 33 249 53 q 215 67 183 77 q 150 87 118 87 q 96 87 82 83 q 67 79 58 73 q 48 67 44 60 q 41 52 41 46 q 41 32 55 21 q 70 11 101 11 z"},"{":{"x_min":0,"x_max":343,"ha":343,"o":"m 116 264 q 130 260 139 243 q 147 227 147 209 q 147 189 138 163 q 129 137 115 108 q 101 79 85 49 q 68 18 54 -12 q 41 -42 31 -70 q 22 -99 22 -122 q 22 -137 27 -151 q 32 -166 44 -177 q 56 -188 76 -196 q 96 -203 126 -203 l 113 -229 q 72 -229 44 -219 q 17 -209 0 -193 q -17 -177 -24 -157 q -31 -138 -31 -120 q -31 -96 -21 -67 q -12 -38 3 -6 q 17 25 34 57 q 50 89 65 119 q 79 148 89 173 q 98 199 98 217 q 98 258 62 258 l 35 258 l 48 285 l 86 285 q 115 285 137 311 q 160 336 179 377 q 197 419 213 472 q 228 525 242 581 q 253 627 274 653 q 295 678 323 690 q 352 701 385 703 q 418 705 455 705 l 443 678 q 418 678 395 675 q 372 671 352 660 q 333 649 317 628 q 302 607 293 572 q 278 514 264 463 q 250 412 231 371 q 212 331 185 303 q 158 275 116 264 z"},"9":{"x_min":0,"x_max":687,"ha":687,"o":"m 8 67 q 7 66 4 51 q 0 37 0 16 q 0 -14 10 -38 q 21 -62 39 -79 q 57 -97 82 -106 q 106 -116 136 -116 q 176 -116 219 -101 q 262 -87 305 -61 q 349 -35 391 1 q 433 37 470 81 q 508 124 540 174 q 572 223 595 276 q 619 328 632 382 q 645 437 645 490 q 645 538 635 577 q 626 616 606 643 q 587 671 556 686 q 526 700 484 700 q 434 700 386 679 q 339 659 297 624 q 256 590 221 546 q 187 501 162 454 q 137 407 124 361 q 110 314 110 276 q 110 240 121 211 q 132 182 152 162 q 173 142 202 131 q 231 120 268 120 q 308 120 350 132 q 392 145 433 172 q 474 199 511 241 q 548 283 577 341 l 600 330 q 569 268 529 223 q 489 178 444 149 q 399 121 353 107 q 307 94 264 94 q 220 94 183 108 q 146 123 120 151 q 93 178 78 219 q 63 259 63 310 q 63 353 78 401 q 92 449 118 496 q 144 542 181 585 q 217 628 262 660 q 307 693 358 712 q 409 731 465 731 q 516 731 557 714 q 599 697 629 664 q 659 631 675 581 q 691 532 691 467 q 691 392 669 317 q 647 243 609 175 q 570 107 519 48 q 467 -10 408 -53 q 349 -96 285 -121 q 222 -145 159 -145 q 110 -145 75 -131 q 41 -118 18 -95 q -4 -73 -14 -43 q -24 -14 -24 17 q -24 31 -22 46 q -21 61 -17 75 z"}," ":{"x_min":0,"x_max":293,"ha":293,"o":""},"I":{"x_min":0,"x_max":740,"ha":740,"o":"m 524 144 q 473 180 443 219 q 413 259 398 299 q 383 339 379 377 q 375 415 375 446 q 375 500 385 544 q 396 588 413 623 q 430 658 453 684 q 476 710 500 727 q 525 744 551 752 q 576 761 598 761 q 631 761 659 743 q 687 725 707 693 q 727 660 739 615 q 750 570 750 516 q 750 444 735 375 q 720 307 691 245 q 662 184 620 133 q 578 82 524 44 q 471 7 406 -14 q 342 -35 269 -35 q 204 -35 149 -18 q 95 0 55 28 q 16 56 -7 93 q -29 130 -29 169 q -29 207 -17 231 q -5 256 15 271 q 36 287 62 293 q 87 300 115 300 q 166 300 214 286 q 261 271 304 246 q 348 220 385 183 q 423 146 455 102 l 434 87 q 398 137 360 172 q 321 207 283 228 q 245 250 209 259 q 173 268 143 268 q 112 268 90 261 q 68 253 53 241 q 39 228 32 210 q 25 192 25 171 q 25 132 45 99 q 65 66 99 42 q 133 18 177 4 q 221 -9 269 -9 q 327 -9 377 6 q 426 22 467 49 q 508 77 541 114 q 574 150 599 193 q 625 236 643 282 q 661 328 673 374 q 685 419 690 463 q 696 506 696 542 q 696 590 687 626 q 679 662 665 686 q 651 710 634 722 q 616 735 598 735 q 569 735 539 714 q 509 693 485 653 q 461 613 446 555 q 431 497 431 423 q 431 368 441 325 q 451 282 467 250 q 482 217 501 195 q 520 173 538 161 z"},"H":{"x_min":0,"x_max":1077,"ha":1077,"o":"m 864 285 q 871 284 883 281 q 895 279 909 274 q 924 269 939 259 q 954 250 966 233 q 978 217 986 194 q 993 170 993 138 q 993 102 980 68 q 967 34 943 7 q 920 -20 888 -36 q 855 -52 818 -52 q 779 -52 750 -40 q 722 -28 703 -7 q 685 15 676 46 q 667 76 667 113 q 667 153 681 215 q 694 278 729 359 q 673 336 618 318 q 563 299 509 283 q 480 239 445 196 q 410 153 371 116 q 333 78 292 47 q 252 15 212 -8 q 173 -31 135 -43 q 98 -56 66 -56 q 37 -56 19 -48 q 1 -40 -9 -28 q -20 -16 -23 -1 q -27 13 -27 24 q -27 39 -20 57 q -13 75 1 93 q 16 112 39 130 q 61 147 91 163 q 138 187 185 206 q 231 225 277 241 q 322 257 367 271 q 412 284 457 297 q 481 339 501 383 q 521 426 536 467 q 551 508 560 545 q 568 583 568 613 q 568 637 561 656 q 553 676 539 690 q 525 704 505 711 q 485 719 460 719 q 415 719 373 708 q 331 697 295 679 q 259 660 230 635 q 201 610 180 583 q 159 555 148 526 q 137 497 137 469 q 137 442 148 424 q 160 406 177 396 q 195 385 215 381 q 235 377 253 377 q 273 377 291 380 q 310 384 323 388 q 337 392 346 395 q 354 399 354 399 l 365 375 q 363 374 351 370 q 340 366 321 361 q 303 356 278 352 q 253 349 225 349 q 195 349 168 355 q 142 362 122 377 q 102 392 91 415 q 79 438 79 471 q 79 509 96 543 q 114 578 143 609 q 172 639 211 664 q 249 689 291 707 q 333 725 377 735 q 420 745 459 745 q 495 745 524 735 q 554 725 575 706 q 597 687 609 658 q 621 629 621 591 q 621 559 613 522 q 605 485 592 449 q 580 413 563 379 q 547 346 530 319 q 585 335 638 353 q 691 371 746 394 q 800 500 849 568 q 897 636 939 675 q 981 714 1015 729 q 1049 745 1074 745 q 1103 745 1119 729 q 1135 713 1135 686 q 1135 654 1112 618 q 1088 582 1047 548 q 987 498 927 460 q 868 423 807 394 q 779 334 761 287 q 743 240 733 202 q 722 165 718 135 q 713 106 713 83 q 713 55 721 34 q 729 14 743 0 q 757 -14 776 -20 q 795 -27 818 -27 q 848 -27 875 -14 q 902 -1 923 21 q 943 44 955 74 q 967 104 967 138 q 967 167 960 188 q 953 208 942 222 q 931 235 918 243 q 905 250 893 254 q 882 258 873 259 q 865 259 863 259 z m 88 -21 q 128 -21 173 0 q 218 21 263 59 q 309 97 353 149 q 397 201 436 261 l 405 252 q 374 243 334 230 q 295 216 254 199 q 213 182 174 162 q 134 142 104 119 q 73 96 55 70 q 36 44 36 17 q 36 -2 51 -12 q 65 -21 88 -21 z m 825 432 q 876 458 928 491 q 979 525 1032 568 q 1053 586 1068 603 q 1083 620 1092 635 q 1102 650 1106 663 q 1110 676 1110 686 q 1110 700 1101 710 q 1093 720 1074 720 q 1054 720 1033 708 q 1012 697 990 677 q 968 656 946 629 q 924 601 903 569 q 882 537 863 502 q 843 467 825 432 z"},"4":{"x_min":0,"x_max":656,"ha":656,"o":"m 373 713 q 372 712 361 690 q 349 668 329 632 q 308 596 280 548 q 251 500 218 449 q 184 397 146 344 q 107 292 67 245 q 119 263 166 271 q 213 278 256 278 q 282 278 307 276 q 333 273 357 270 q 381 267 403 263 q 426 260 447 258 l 598 621 l 626 612 l 497 255 q 528 255 553 261 q 578 266 596 272 q 613 278 623 284 q 632 289 633 289 l 646 268 q 646 267 634 261 q 623 255 603 248 q 583 241 553 235 q 524 229 488 229 l 389 -43 l 328 -29 l 437 232 q 415 235 394 238 q 372 242 350 245 q 328 248 305 250 q 282 252 257 252 q 205 252 147 241 q 89 229 24 199 l 10 219 q 40 260 85 331 q 104 361 128 401 q 152 440 182 491 q 211 542 245 603 q 280 665 320 739 l 373 713 z"},"~":{"x_min":0,"x_max":391,"ha":391,"o":"m 162 350 q 147 350 134 341 q 121 332 109 320 q 97 308 85 291 l 63 305 q 77 325 93 341 q 106 354 125 365 q 144 376 166 376 q 183 376 197 367 q 211 358 224 347 q 236 336 248 327 q 260 317 274 317 q 289 317 302 326 q 315 335 327 347 q 339 359 351 376 l 373 362 q 359 342 343 327 q 329 313 311 302 q 292 291 271 291 q 253 291 239 300 q 225 310 212 321 q 200 332 188 341 q 175 350 162 350 z"},"D":{"x_min":0,"x_max":977,"ha":977,"o":"m 780 702 q 756 676 735 648 q 781 623 817 587 q 853 552 877 509 q 902 467 915 418 q 928 370 928 318 q 928 272 919 227 q 910 181 890 140 q 871 99 841 63 q 812 28 770 2 q 729 -24 675 -39 q 622 -54 556 -54 q 497 -54 443 -43 q 390 -32 341 -19 q 304 -44 259 -59 q 214 -73 158 -73 q 135 -73 119 -69 q 102 -64 92 -57 q 81 -50 76 -40 q 71 -31 71 -21 q 71 -8 77 3 q 83 14 95 22 q 108 30 127 35 q 146 40 172 40 q 208 40 243 32 q 279 25 315 15 q 351 47 381 93 q 410 138 437 191 q 464 245 490 303 q 517 362 546 421 q 576 480 610 537 q 645 593 688 643 q 651 659 608 667 q 565 676 517 676 q 457 676 402 664 q 347 651 299 630 q 251 608 211 580 q 172 551 144 517 q 116 484 100 448 q 85 411 85 375 q 85 352 94 331 q 104 310 120 294 q 136 278 158 269 q 180 259 206 259 q 226 259 245 264 q 265 269 283 275 q 301 282 317 290 q 333 298 344 305 q 356 312 363 317 q 369 322 370 322 l 385 302 q 362 287 338 273 q 313 259 287 248 q 260 237 232 230 q 204 224 174 224 q 145 224 119 234 q 92 244 73 262 q 53 280 41 306 q 29 331 29 362 q 29 397 45 436 q 61 474 91 512 q 120 550 163 584 q 206 618 260 644 q 314 670 379 686 q 443 701 517 701 q 570 701 617 691 q 664 681 705 663 q 733 692 765 718 z m 875 351 q 875 396 864 438 q 854 479 834 514 q 814 549 786 578 q 757 606 720 627 q 684 576 655 519 q 625 461 600 403 q 574 344 549 287 q 524 229 497 177 q 470 124 438 79 q 406 34 367 0 q 406 -10 445 -18 q 484 -26 525 -26 q 611 -26 677 3 q 742 33 786 84 q 830 135 852 204 q 875 272 875 351 z m 156 -47 q 196 -47 229 -36 q 262 -25 290 -5 q 258 3 229 9 q 199 15 172 15 q 134 15 115 5 q 97 -5 97 -20 q 97 -31 110 -39 q 124 -47 156 -47 z"},"^":{"x_min":0,"x_max":500,"ha":500,"o":"m 347 429 l 333 658 l 160 429 l 118 429 l 332 705 l 362 705 l 383 429 z"},"0":{"x_min":0,"x_max":688,"ha":688,"o":"m 594 670 q 585 672 568 676 q 552 680 522 680 q 484 680 439 663 q 394 646 348 615 q 302 583 259 540 q 216 496 183 443 q 150 390 130 329 q 110 269 110 204 q 110 158 122 123 q 135 88 157 64 q 179 40 210 28 q 241 16 278 16 q 315 16 352 28 q 389 40 425 62 q 460 83 493 113 q 525 143 554 178 q 583 213 607 252 q 630 291 647 330 q 664 369 673 408 q 683 447 683 482 q 683 520 673 546 q 664 572 648 589 q 632 605 612 613 q 592 620 570 620 q 532 620 494 598 q 457 576 423 532 l 402 548 q 440 596 482 621 q 524 646 569 646 q 599 646 624 635 q 650 624 668 603 q 687 582 698 551 q 708 520 708 480 q 708 440 698 398 q 688 356 670 314 q 652 272 626 231 q 601 191 570 155 q 539 119 504 88 q 468 58 430 35 q 392 13 352 1 q 312 -12 273 -12 q 221 -12 180 7 q 139 25 111 57 q 83 88 68 130 q 54 171 54 217 q 54 279 71 340 q 88 400 119 455 q 150 509 193 555 q 236 601 288 634 q 339 667 398 686 q 457 705 520 705 q 541 705 564 700 q 587 696 603 689 z"},"F":{"x_min":0,"x_max":792,"ha":792,"o":"m 813 578 q 812 578 795 561 q 777 543 748 508 q 719 473 680 419 q 642 365 600 292 l 581 258 q 597 262 614 266 q 630 269 647 272 l 669 276 q 685 305 698 323 q 711 341 722 351 q 733 362 742 366 q 751 370 759 370 q 768 370 777 363 q 786 357 786 340 q 786 327 779 315 q 773 303 761 292 q 750 281 733 273 q 717 265 698 260 q 688 241 679 220 q 669 199 658 178 q 647 157 636 137 q 625 117 613 99 l 578 131 q 583 137 592 148 q 601 160 611 175 q 622 189 632 206 q 642 222 649 237 l 656 251 q 634 247 611 241 q 588 236 564 230 q 527 166 491 113 q 455 61 415 23 q 374 -14 326 -34 q 277 -55 214 -55 q 173 -55 132 -43 q 90 -32 56 -10 q 23 12 2 44 q -20 76 -20 116 q -20 148 -7 173 q 5 197 27 214 q 48 231 77 240 q 105 248 137 248 q 164 248 190 242 q 217 235 242 224 q 267 212 289 195 q 311 178 329 157 l 310 143 q 295 158 277 169 q 259 181 239 189 q 218 197 197 201 q 175 205 154 205 q 131 205 109 199 q 87 193 70 180 q 53 167 42 147 q 32 127 32 98 q 32 71 45 48 q 58 25 81 9 q 104 -8 134 -18 q 165 -28 199 -28 q 249 -28 288 -10 q 328 9 361 41 q 395 72 424 115 q 454 158 483 206 q 469 202 455 197 q 441 192 427 187 l 417 210 q 440 218 460 224 q 481 230 501 237 q 529 283 559 332 q 589 380 625 427 q 661 474 703 516 q 746 559 799 593 z m 483 312 q 438 292 394 283 q 350 273 311 273 q 265 273 228 286 q 190 298 163 320 q 135 342 120 373 q 105 403 105 440 q 105 487 121 523 q 137 559 164 587 q 191 614 229 633 q 266 652 308 665 q 351 677 396 682 q 442 688 487 688 q 539 688 588 681 q 637 675 683 667 q 729 660 772 653 q 816 647 857 647 q 905 647 945 654 q 985 662 1014 671 q 1042 680 1059 687 q 1075 695 1076 695 l 1088 672 q 1086 671 1069 663 q 1051 655 1021 646 q 991 636 950 629 q 908 621 858 621 q 812 621 769 627 q 726 633 682 641 q 639 648 592 654 q 545 660 491 660 q 411 660 349 645 q 288 629 247 601 q 206 572 185 531 q 164 491 164 440 q 164 406 177 380 q 190 354 213 337 q 236 320 265 311 q 295 303 327 303 q 355 303 382 308 q 408 312 428 319 q 448 325 460 330 q 473 335 473 335 z m 754 344 q 746 344 735 329 q 725 313 712 289 q 727 294 736 301 q 746 307 751 313 q 756 320 758 326 q 760 333 760 338 q 760 342 758 343 q 756 344 754 344 z"},"`":{"x_min":0,"x_max":244,"ha":244,"o":"m 163 418 l 87 513 l 148 513 l 186 418 z"},"k":{"x_min":0,"x_max":421,"ha":421,"o":"m 59 171 q 84 207 113 239 q 141 271 170 297 q 200 322 229 337 q 259 352 288 352 q 305 352 316 347 q 328 341 334 333 q 341 325 344 314 q 346 304 346 293 q 346 279 341 262 q 335 245 323 227 q 312 210 294 194 q 277 178 252 166 q 258 153 258 135 q 258 124 255 112 q 252 101 249 89 q 245 78 242 67 q 239 55 239 43 q 239 38 240 32 q 241 27 243 22 q 245 18 250 15 q 254 13 263 13 q 272 13 285 21 q 298 29 312 42 q 326 55 341 73 q 356 90 370 109 q 384 128 397 147 q 411 166 421 182 l 439 168 q 415 131 391 98 q 367 64 344 39 q 320 13 295 -2 q 271 -17 245 -17 q 235 -17 224 -14 q 213 -11 204 -5 q 195 2 189 13 q 183 23 183 39 q 183 58 192 83 q 201 106 205 122 q 208 138 209 148 q 199 146 187 144 q 176 142 166 142 q 160 142 154 143 q 147 145 142 147 q 137 150 133 155 q 129 160 129 167 q 129 174 134 181 q 139 188 147 193 q 155 198 166 201 q 177 204 191 204 q 216 204 234 190 q 252 204 263 220 q 275 236 281 251 q 288 266 290 278 q 292 290 292 296 q 292 312 287 318 q 281 324 272 324 q 257 324 238 314 q 218 304 198 286 q 177 269 155 246 q 133 223 113 197 q 92 172 73 146 q 53 120 37 97 q 22 73 11 52 q 0 31 -8 16 q -16 0 -21 -7 q -25 -15 -25 -13 l -74 0 q -16 131 43 263 q 102 394 167 528 q 177 548 190 571 q 202 594 217 617 q 231 641 247 663 q 264 685 281 701 q 298 718 316 728 q 334 738 353 738 q 372 738 384 728 q 396 717 396 693 q 396 661 378 615 q 361 569 327 517 q 292 465 241 412 q 190 359 123 314 z m 144 361 q 203 407 246 455 q 289 504 316 549 q 344 594 357 632 q 370 670 370 696 q 370 704 366 708 q 362 712 354 712 q 335 712 316 695 q 297 677 273 636 q 249 595 218 527 q 187 460 144 361 z m 207 170 q 204 176 198 180 q 193 184 186 184 q 172 184 161 178 q 150 172 150 167 q 150 163 155 162 q 160 161 164 161 q 176 161 187 164 q 198 167 207 170 z"},"u":{"x_min":0,"x_max":434,"ha":434,"o":"m 228 106 q 205 80 183 58 q 161 36 139 20 q 118 4 96 -5 q 75 -14 53 -14 q 34 -14 19 -8 q 4 -1 -7 11 q -18 23 -23 40 q -29 58 -29 79 q -29 113 -14 148 q 0 184 23 218 q 46 251 73 282 q 101 312 126 335 l 147 321 q 129 295 108 262 q 86 229 67 195 q 47 160 34 125 q 21 90 21 60 q 21 40 29 26 q 36 12 58 12 q 81 12 109 30 q 137 49 167 79 q 196 108 226 146 q 255 183 282 221 q 308 259 330 294 q 352 329 365 353 l 401 335 q 373 280 346 232 q 320 184 300 145 q 280 107 268 79 q 256 50 256 34 q 256 27 259 22 q 262 18 268 18 q 286 18 308 34 q 330 50 352 74 q 374 99 395 128 q 417 157 434 182 l 451 168 q 448 164 439 148 q 430 133 416 114 q 402 94 385 73 q 367 51 348 33 q 328 16 307 4 q 286 -7 266 -7 q 253 -7 243 -3 q 233 1 226 9 q 219 16 215 26 q 211 36 211 46 q 211 59 216 74 q 220 89 228 106 z"},"]":{"x_min":0,"x_max":343,"ha":343,"o":"m 435 705 l 24 -229 l -148 -229 l -136 -203 l -20 -203 l 368 678 l 251 678 l 263 705 z"},"U":{"x_min":0,"x_max":1159,"ha":1159,"o":"m 1177 168 q 1166 150 1151 128 q 1136 105 1117 83 q 1099 60 1077 38 q 1055 17 1031 0 q 1006 -17 980 -27 q 954 -37 925 -37 q 900 -37 881 -29 q 863 -21 851 -7 q 838 6 833 24 q 827 42 827 61 q 827 89 835 122 q 792 71 754 34 q 715 -4 677 -29 q 640 -53 601 -65 q 562 -78 518 -78 q 491 -78 467 -70 q 443 -63 426 -49 q 408 -34 398 -13 q 388 9 388 38 q 388 74 405 111 q 422 148 447 186 q 473 223 503 261 q 533 298 558 335 q 583 373 601 409 q 618 446 618 481 q 618 513 605 542 q 592 572 564 594 q 536 617 493 630 q 449 644 388 644 q 337 644 294 634 q 252 625 218 607 q 185 590 160 567 q 135 544 118 518 q 102 491 94 462 q 85 434 85 405 q 85 368 99 342 q 113 316 135 300 q 156 284 184 277 q 211 270 238 270 q 268 270 294 277 q 320 284 340 292 q 360 300 372 307 q 383 314 384 314 l 396 296 q 358 265 310 248 q 262 231 214 231 q 179 231 146 241 q 113 251 87 272 q 61 293 45 326 q 29 359 29 404 q 29 457 55 505 q 81 553 127 589 q 174 626 241 648 q 307 670 389 670 q 446 670 495 656 q 544 642 580 615 q 616 588 636 551 q 657 513 657 466 q 658 424 641 382 q 625 341 599 301 q 574 261 545 223 q 516 186 490 151 q 465 117 448 86 q 432 56 432 30 q 432 15 437 0 q 443 -14 455 -25 q 467 -36 486 -43 q 504 -50 530 -50 q 586 -50 638 -21 q 689 9 738 59 q 787 110 834 177 q 882 245 931 322 q 981 399 1034 481 q 1087 563 1147 642 l 1169 630 q 1141 577 1107 518 q 1074 459 1040 400 q 1007 342 976 286 q 944 230 920 183 q 896 135 882 99 q 867 62 867 43 q 867 16 884 2 q 901 -11 924 -11 q 949 -11 972 -2 q 995 7 1017 23 q 1039 38 1059 58 q 1079 78 1097 99 q 1115 121 1131 142 q 1146 164 1159 182 z"},"o":{"x_min":0,"x_max":365,"ha":365,"o":"m 275 133 q 277 132 279 132 q 281 132 284 132 q 297 132 309 135 q 320 138 329 144 q 339 149 348 159 q 356 168 365 182 l 382 168 q 359 135 334 122 q 309 109 281 109 q 271 109 263 111 q 242 76 218 51 q 194 26 169 11 q 145 -5 120 -12 q 96 -19 75 -19 q 53 -19 35 -11 q 17 -4 3 10 q -10 24 -17 44 q -24 63 -24 88 q -24 112 -17 138 q -9 163 5 188 q 18 213 36 236 q 54 259 75 279 q 96 299 119 315 q 141 332 164 342 l 179 321 q 153 303 127 274 q 100 246 78 212 q 57 179 43 142 q 29 106 29 72 q 29 41 42 24 q 56 7 84 7 q 105 7 126 16 q 147 25 167 40 q 188 55 206 76 q 225 97 241 120 q 227 128 216 142 q 206 156 198 174 q 191 192 187 212 q 184 233 184 254 q 184 276 189 295 q 194 314 204 328 q 213 343 226 351 q 239 359 254 359 q 268 359 278 352 q 289 345 296 333 q 304 320 308 303 q 312 286 312 267 q 312 252 309 234 q 307 217 302 199 q 297 181 291 164 q 284 146 275 133 z m 209 254 q 209 240 211 224 q 214 207 219 191 q 225 176 233 162 q 241 149 253 141 q 262 158 268 176 q 274 194 279 210 q 283 227 284 241 q 286 256 286 267 q 286 281 284 293 q 281 306 277 315 q 273 324 267 329 q 261 334 253 334 q 244 334 235 327 q 227 321 221 310 q 215 299 212 284 q 209 270 209 254 z"},"N":{"x_min":0,"x_max":1021,"ha":1021,"o":"m 1403 631 q 1404 637 1405 643 q 1405 648 1405 654 q 1405 674 1397 693 q 1389 712 1374 726 q 1358 741 1336 749 q 1314 758 1287 758 q 1258 758 1226 745 q 1194 733 1162 702 q 1130 671 1097 624 q 1064 576 1032 519 q 1000 461 969 398 q 938 334 910 273 q 882 211 858 155 q 835 99 818 56 q 801 14 791 -12 q 782 -38 781 -39 l 756 -33 q 750 5 746 35 q 741 65 738 93 q 735 121 733 148 q 732 176 732 207 q 732 232 734 265 q 736 298 740 334 q 745 371 750 410 q 756 448 762 485 q 769 522 776 556 q 784 589 792 616 q 750 554 716 491 q 681 428 650 368 q 620 307 591 250 q 562 193 532 144 q 501 94 468 52 q 434 11 394 -19 q 354 -48 305 -65 q 256 -81 195 -81 q 149 -81 109 -68 q 68 -56 37 -33 q 6 -10 -11 23 q -29 56 -29 95 q -29 140 -10 176 q 9 211 41 235 q 73 259 114 272 q 156 285 200 285 q 226 285 252 281 q 278 278 303 270 q 328 262 352 249 q 375 236 395 217 l 376 200 q 376 200 365 209 q 355 218 334 229 q 313 240 282 249 q 250 258 208 258 q 173 258 141 248 q 109 238 84 219 q 59 200 43 172 q 28 145 28 108 q 28 70 44 41 q 61 11 87 -9 q 114 -29 148 -40 q 183 -50 219 -50 q 272 -50 316 -32 q 360 -15 397 18 q 435 50 467 95 q 500 140 530 194 q 561 248 592 310 q 624 372 658 438 q 693 503 733 572 q 773 640 821 708 l 844 696 q 828 648 818 596 q 808 543 803 488 q 798 433 796 376 q 794 319 794 264 q 793 209 793 156 q 793 104 791 57 q 807 100 831 156 q 854 213 882 276 q 911 339 943 404 q 975 469 1008 529 q 1042 588 1076 638 q 1110 688 1144 720 q 1180 755 1217 769 q 1254 784 1288 784 q 1321 784 1347 773 q 1374 762 1393 744 q 1411 726 1421 703 q 1431 679 1431 654 q 1431 641 1428 626 z"},"+":{"x_min":0,"x_max":391,"ha":391,"o":"m 226 320 l 162 188 l 131 188 l 195 320 l 63 320 l 77 347 l 208 347 l 272 477 l 303 477 l 239 347 l 371 347 l 357 320 z"},"G":{"x_min":0,"x_max":709,"ha":709,"o":"m 75 276 q 108 280 140 285 q 172 290 202 296 q 204 356 222 411 q 239 466 268 514 q 296 562 333 600 q 369 639 409 667 q 450 694 491 709 q 533 725 572 725 q 624 725 651 703 q 678 681 678 638 q 678 588 648 536 q 619 484 565 437 q 511 389 435 349 q 358 310 264 284 q 264 253 272 225 q 279 197 294 175 q 310 153 332 141 q 354 128 383 128 q 417 128 455 144 q 492 160 527 185 q 563 210 594 240 q 625 271 648 300 q 691 355 718 383 q 744 410 746 412 l 764 394 q 719 350 684 301 q 650 251 621 201 q 592 150 567 100 q 542 50 515 4 q 488 -42 457 -81 q 427 -121 388 -149 q 349 -178 299 -195 q 250 -211 185 -211 q 124 -211 75 -197 q 27 -182 -7 -156 q -42 -131 -60 -96 q -78 -61 -78 -20 q -78 23 -63 55 q -48 86 -25 107 q -1 127 29 136 q 59 146 89 146 q 126 146 153 134 q 179 123 198 106 l 184 86 q 178 91 170 97 q 162 103 152 108 q 141 113 129 117 q 116 120 102 120 q 74 120 51 110 q 28 100 12 81 q -4 62 -13 36 q -22 11 -22 -20 q -22 -61 -5 -92 q 13 -123 41 -143 q 69 -164 104 -175 q 140 -186 176 -186 q 231 -186 272 -170 q 313 -154 345 -127 q 377 -100 403 -64 q 428 -28 453 13 q 477 54 503 96 q 529 139 562 180 q 509 136 458 113 q 407 90 359 90 q 329 90 301 101 q 273 112 252 134 q 230 156 216 190 q 203 223 201 269 q 171 262 140 258 q 109 253 77 250 z m 587 697 q 550 697 512 682 q 475 667 440 641 q 406 615 375 579 q 345 542 322 500 q 299 457 284 409 q 269 361 265 312 q 364 340 437 381 q 510 421 558 466 q 605 511 629 556 q 652 601 652 638 q 652 667 636 682 q 620 697 587 697 z"},"q":{"x_min":0,"x_max":446,"ha":446,"o":"m 345 291 q 350 299 356 308 q 361 317 366 324 l 383 316 q 382 316 376 303 q 371 290 360 268 q 350 247 336 217 q 322 188 307 154 q 291 120 274 83 q 257 47 240 11 q 241 11 252 17 q 263 22 280 32 q 297 42 318 57 q 340 72 363 91 q 385 110 407 133 q 429 156 446 182 l 464 168 q 437 127 406 97 q 376 66 348 45 q 319 23 296 10 q 273 -2 262 -8 q 263 -22 263 -37 q 264 -51 264 -66 q 264 -110 259 -155 q 254 -199 244 -239 q 235 -279 222 -314 q 208 -349 192 -374 q 176 -399 158 -414 q 139 -429 119 -429 q 97 -429 82 -421 q 67 -414 57 -401 q 48 -389 43 -372 q 39 -356 39 -338 q 39 -310 49 -275 q 60 -240 79 -197 q 98 -153 124 -99 q 151 -44 184 22 q 157 2 130 -10 q 102 -21 71 -21 q 56 -21 37 -16 q 19 -11 3 1 q -13 13 -23 32 q -34 51 -34 79 q -34 109 -23 140 q -13 171 6 201 q 25 231 51 257 q 77 284 107 303 q 138 323 171 335 q 205 346 240 346 q 267 346 285 341 q 304 336 316 328 q 328 320 334 310 q 341 300 345 291 z m 326 266 q 324 274 321 283 q 318 292 311 299 q 305 306 294 311 q 283 315 265 315 q 236 315 207 304 q 177 294 150 276 q 123 257 99 233 q 75 209 57 182 q 40 154 29 125 q 19 96 19 68 q 19 38 34 21 q 49 4 78 4 q 108 4 143 22 q 178 39 211 72 q 240 121 268 170 q 297 219 326 266 z m 235 0 q 210 -53 185 -103 q 161 -154 139 -197 q 114 -246 102 -287 q 89 -329 89 -357 q 89 -366 90 -374 q 92 -382 95 -388 q 98 -395 103 -399 q 108 -403 116 -403 q 131 -403 146 -386 q 162 -370 175 -343 q 188 -315 200 -280 q 212 -244 220 -205 q 229 -166 233 -126 q 238 -86 238 -51 q 238 -39 237 -26 q 236 -14 235 0 z"},"d":{"x_min":0,"x_max":453,"ha":453,"o":"m 544 642 q 539 634 527 616 q 515 598 499 573 q 482 548 464 518 q 445 487 426 455 q 407 423 389 390 q 372 357 358 327 q 336 280 323 243 q 309 206 301 177 q 292 148 289 127 q 286 106 286 91 q 286 63 295 52 q 303 42 318 42 q 333 42 347 49 q 361 57 374 69 q 387 82 398 97 q 410 113 420 128 q 430 144 438 158 q 446 172 453 182 l 470 168 q 465 160 457 145 q 449 131 438 114 q 428 97 415 79 q 402 62 386 48 q 370 34 351 25 q 332 16 309 16 q 298 16 286 19 q 274 21 264 29 q 254 36 246 49 q 238 62 236 82 q 199 42 165 22 q 130 2 99 2 q 83 2 65 7 q 46 13 29 26 q 13 39 1 61 q -10 83 -10 115 q -10 151 1 184 q 13 216 32 244 q 51 272 75 295 q 100 318 127 334 q 154 350 181 358 q 208 367 232 367 q 264 367 282 359 q 300 352 309 344 q 316 357 328 379 q 339 400 355 426 q 371 452 390 482 q 409 511 430 541 q 452 571 475 601 q 499 630 523 655 z m 235 119 q 238 155 252 204 q 267 253 296 317 q 290 327 277 333 q 265 338 249 338 q 225 338 200 329 q 176 319 153 302 q 130 286 110 263 q 90 240 75 214 q 61 188 52 160 q 43 132 43 105 q 43 68 59 48 q 74 27 100 27 q 112 27 127 32 q 142 37 159 48 q 176 59 195 76 q 214 94 235 119 z"},"1":{"x_min":0,"x_max":396,"ha":396,"o":"m 465 678 l 125 -6 l 68 20 q 107 92 139 153 q 171 213 198 264 q 225 315 247 358 q 270 401 291 439 q 311 477 330 510 q 349 543 368 575 q 334 544 301 517 q 267 489 235 466 q 203 443 175 424 q 147 406 126 393 q 105 380 93 373 q 81 366 81 366 l 68 388 q 69 389 87 399 q 106 410 136 429 q 166 449 205 476 q 244 503 286 537 q 327 571 368 610 q 409 649 443 691 z"},"5":{"x_min":0,"x_max":655,"ha":655,"o":"m 655 675 q 625 654 599 642 q 572 629 549 622 q 525 616 504 614 q 484 611 466 611 q 450 611 431 615 q 411 618 392 625 q 373 631 355 639 q 337 647 324 658 q 314 616 302 577 q 291 539 279 494 q 304 501 330 505 q 357 509 386 509 q 436 509 479 495 q 522 480 553 452 q 585 424 603 382 q 621 339 621 282 q 621 229 605 177 q 589 125 561 77 q 533 29 494 -13 q 455 -54 408 -84 q 361 -115 308 -132 q 255 -149 199 -149 q 154 -149 112 -137 q 69 -125 35 -99 q 2 -74 -19 -37 q -39 1 -39 51 q -39 82 -31 106 q -23 131 -12 146 l 8 131 q -1 119 -7 97 q -13 76 -13 51 q -13 13 1 -18 q 16 -49 41 -72 q 66 -94 100 -106 q 133 -118 172 -118 q 220 -118 268 -101 q 316 -83 360 -54 q 404 -24 442 17 q 480 57 508 103 q 535 149 551 199 q 567 250 567 299 q 567 350 551 385 q 536 420 509 442 q 481 464 445 473 q 408 483 366 483 q 342 483 318 478 q 293 473 270 465 q 243 385 208 343 q 172 301 137 301 q 121 301 108 312 q 96 324 96 342 q 96 359 106 378 q 117 398 137 417 q 157 436 185 454 q 213 471 248 484 q 263 534 277 582 q 292 630 305 687 l 322 695 q 361 680 402 674 q 443 668 480 668 q 525 668 568 675 q 610 681 647 695 z m 141 326 q 150 326 162 333 q 173 340 186 355 q 198 371 211 394 q 224 418 237 452 q 212 440 191 427 q 170 413 154 399 q 139 385 130 370 q 121 356 121 343 q 121 335 126 331 q 132 326 141 326 z"}}}
